<svg width="29" height="17" viewBox="0 0 29 17" fill="none" xmlns="http://www.w3.org/2000/svg">
<g id="Vector">
<path d="M3.8055 17H0.543644C0.243394 17 0 16.7622 0 16.4688V0.531626C0 0.238228 0.243394 0.000388212 0.543644 0.000388212H3.8055C4.10575 0.000388212 4.34915 0.238228 4.34915 0.531626V16.4688C4.34915 16.7622 4.10575 17 3.8055 17Z" fill="white"/>
<path d="M16.1311 17H11.4186C11.1183 17 10.8749 16.7622 10.8749 16.4688V0.531626C10.8749 0.238228 11.1183 0.000388212 11.4186 0.000388212H16.1311C16.4314 0.000388212 16.6748 0.238228 16.6748 0.531626V16.4688C16.6748 16.7622 16.4314 17 16.1311 17Z" fill="white"/>
<path d="M21.2056 17H19.3934C19.0932 17 18.8498 16.7622 18.8498 16.4688V0.531626C18.8498 0.238228 19.0932 0.000388212 19.3934 0.000388212H21.2056C21.5058 0.000388212 21.7492 0.238228 21.7492 0.531626V16.4688C21.7492 16.7622 21.5058 17 21.2056 17Z" fill="white"/>
<path d="M28.4555 17H26.6433C26.3431 17 26.0997 16.7622 26.0997 16.4688V0.531626C26.0997 0.238228 26.3431 0.000388212 26.6433 0.000388212H28.4555C28.7557 0.000388212 28.9991 0.238228 28.9991 0.531626V16.4688C28.9991 16.7622 28.7557 17 28.4555 17Z" fill="white"/>
<path d="M3.8055 0.000388212H2.3558C2.65616 0.000388212 2.89963 0.238228 2.89963 0.531626V16.4688C2.89963 16.7622 2.65616 17 2.3558 17H3.8055C4.10575 17 4.34915 16.7622 4.34915 16.4688V0.531626C4.34915 0.238228 4.10575 0.000388212 3.8055 0.000388212Z" fill="white"/>
<path d="M16.1311 0.000388212L14.6811 0C14.9815 0 15.2249 0.23784 15.2249 0.531238V16.4684C15.2249 16.7618 14.9815 16.9996 14.6811 16.9996L16.1311 17C16.4314 17 16.6748 16.7622 16.6748 16.4688V0.531626C16.6748 0.238228 16.4314 0.000388212 16.1311 0.000388212Z" fill="white"/>
<path d="M21.2056 0.000388212L19.756 0C20.0564 0 20.2999 0.23784 20.2999 0.531238V16.4684C20.2999 16.7618 20.0564 16.9996 19.756 16.9996L21.2056 17C21.5059 17 21.7501 16.7618 21.7501 16.4684V0.531238C21.7501 0.23784 21.5059 0.000388212 21.2056 0.000388212Z" fill="white"/>
<path d="M28.4555 0.000388212L27.006 0C27.3063 0 27.5498 0.23784 27.5498 0.531238V16.4684C27.5498 16.7618 27.3063 16.9996 27.006 16.9996L28.4555 17C28.7558 17 29 16.7618 29 16.4684V0.531238C29 0.23784 28.7558 0.000388212 28.4555 0.000388212Z" fill="white"/>
<path d="M6.52504 16.9996C6.22469 16.9996 5.98121 16.7618 5.98121 16.4684V0.531238C5.98121 0.23784 6.22469 0 6.52504 0C6.82539 0 7.06886 0.23784 7.06886 0.531238V16.4684C7.06886 16.7618 6.82539 16.9996 6.52504 16.9996Z" fill="white"/>
<path d="M23.9248 16.9996C23.6245 16.9996 23.381 16.7618 23.381 16.4684V0.531238C23.381 0.23784 23.6245 0 23.9248 0C24.2252 0 24.4687 0.23784 24.4687 0.531238V16.4684C24.4687 16.7618 24.2252 16.9996 23.9248 16.9996Z" fill="white"/>
<path d="M8.7 16.9996C8.39965 16.9996 8.15617 16.7618 8.15617 16.4684V0.531238C8.15617 0.23784 8.39965 0 8.7 0C9.00035 0 9.24383 0.23784 9.24383 0.531238V16.4684C9.24383 16.7618 9.00035 16.9996 8.7 16.9996Z" fill="white"/>
</g>
</svg>
