<svg width="34" height="15" viewBox="0 0 34 15" fill="none" xmlns="http://www.w3.org/2000/svg">
<path id="Exclude" fill-rule="evenodd" clip-rule="evenodd" d="M5.80989 0H34C33.4261 2.86706 32.863 5.67053 32.3021 8.46278C32.1804 9.06845 32.0589 9.6736 31.9373 10.2787C31.9105 10.4121 31.8837 10.5462 31.8569 10.6804C31.7085 11.4221 31.5592 12.1686 31.4044 12.8397C31.0109 14.5458 29.5547 15 27.4338 15H0C0.328226 13.4094 0.645658 11.784 0.965047 10.1487C1.35467 8.15365 1.7472 6.14375 2.1658 4.16379C2.21766 3.91854 2.26421 3.66823 2.31085 3.41742C2.39896 2.94357 2.48741 2.46788 2.61271 2.02091C2.9802 0.710211 4.25291 0.0746131 5.80989 0ZM22.1481 8.54404C22.0389 9.44642 23.1069 9.33919 23.4873 8.96168C23.7684 8.68278 23.8469 8.18491 23.9106 7.78122C23.9126 7.76857 23.9145 7.75601 23.9165 7.74356C23.0439 7.63532 22.2389 7.79457 22.1481 8.54404ZM22.1985 6.42339C22.2302 6.29775 22.2619 6.1721 22.2855 6.0382C22.4424 6.0336 22.6214 6.01894 22.8099 6.0035C23.6714 5.93295 24.7302 5.84624 24.775 6.62983C24.7916 6.91999 24.724 7.23473 24.6544 7.55853C24.624 7.7001 24.5933 7.8434 24.569 7.98714C24.5651 8.00994 24.5613 8.03265 24.5575 8.05527C24.4682 8.58323 24.3866 9.06648 24.3801 9.65778H23.7449C23.7349 9.44453 23.7648 9.27189 23.7964 9.10094C23.4921 9.59473 22.6132 9.95413 21.8906 9.64041C21.5154 9.47744 21.3195 8.89364 21.4957 8.30039C21.7586 7.4147 22.7585 7.20815 23.9853 7.32592L23.9866 7.32226C24.0408 7.16957 24.1142 6.96328 24.0711 6.76902C23.9404 6.17969 22.5838 6.51915 22.1481 6.62983C22.164 6.56013 22.1813 6.49176 22.1985 6.42339ZM27.8998 8.43965C27.9112 8.95655 28.1583 9.26831 28.6553 9.2575C29.5574 9.2379 29.7056 8.24802 29.843 7.33035C29.8827 7.06502 29.9215 6.80573 29.9774 6.57767C29.706 6.48375 29.4378 6.39645 29.0674 6.43841C28.2719 6.52861 27.8801 7.53437 27.8998 8.43965ZM30.0461 6.09036C30.1557 5.57509 30.2403 5.03433 30.3036 4.47203H31.0419C30.9602 4.94327 30.8706 5.40657 30.781 5.86986C30.5461 7.08468 30.3112 8.29953 30.2178 9.65778H29.5482C29.5509 9.512 29.5724 9.38531 29.594 9.25862C29.6019 9.21214 29.6098 9.16567 29.6168 9.11824C29.6077 9.08789 29.5713 9.14772 29.5338 9.20917C29.5148 9.24033 29.4956 9.27191 29.4795 9.29237C29.4159 9.37311 29.3179 9.48946 29.2219 9.55338C28.7264 9.88366 27.7448 9.78967 27.402 9.39669C27.2031 9.16865 27.1483 8.84898 27.1444 8.52661C27.1245 6.85983 28.2351 5.50941 30.0461 6.09036ZM9.95778 8.68324C10.0339 9.39662 11.005 9.40311 11.4 8.97912C11.7271 8.62796 11.9986 7.76005 11.8979 7.0649C11.7819 6.26422 10.6386 6.32232 10.2496 6.80382C10.2168 6.97013 10.1891 7.14544 10.1605 7.32711C10.14 7.4572 10.1189 7.59055 10.0951 7.72619C10.0792 7.81702 10.0586 7.90819 10.038 7.99927C9.98594 8.23024 9.93397 8.46061 9.95778 8.68324ZM10.2672 6.35442C10.5973 6.08428 11.3589 5.80029 11.9838 6.0382C13.2696 6.52773 12.5302 9.02804 11.5716 9.55338C11.1071 9.80791 10.0062 9.93386 9.83758 9.27493C9.73592 9.70295 9.67076 10.1679 9.6056 10.6329C9.57539 10.8485 9.54517 11.0642 9.51131 11.2761H8.77305C9.10438 9.55845 9.41831 7.82329 9.68305 6.0382H10.3183C10.3155 6.09626 10.304 6.14551 10.2926 6.19477C10.2811 6.24404 10.2696 6.29333 10.2668 6.35145L10.2672 6.35442ZM10.2672 6.35442C10.2652 6.35601 10.2633 6.3576 10.2613 6.3592C10.2573 6.3624 10.2534 6.36561 10.2496 6.36881C10.2593 6.36793 10.2683 6.36631 10.2672 6.35442ZM13.7522 7.29112H15.4863C15.6435 6.61895 15.2627 6.40043 14.7308 6.42104C14.1658 6.44293 13.8071 6.88706 13.7522 7.29112ZM13.4775 6.508C13.798 6.16584 14.2489 6.01023 14.7824 5.9686C15.3909 5.9211 15.9888 6.04894 16.1559 6.54287C16.251 6.82378 16.1931 7.12659 16.1369 7.42039C16.1183 7.51788 16.0999 7.61438 16.0872 7.70876C15.29 7.68802 14.4625 7.68309 13.6664 7.70876C13.5428 8.24316 13.545 8.8581 13.9239 9.10094C14.4258 9.4225 15.273 9.16419 15.761 8.97912C15.7489 9.05369 15.7343 9.12569 15.7196 9.1977C15.6951 9.31804 15.6706 9.43839 15.658 9.57075C14.4734 9.86298 12.9924 9.90622 12.8594 8.70067C12.7661 7.85566 13.0844 6.92774 13.4775 6.508ZM8.27511 6.09036C8.27365 6.0657 8.27231 6.0411 8.29231 6.0382H9.03058C8.77592 7.20126 8.57271 8.41641 8.39531 9.65778H7.65705C7.89231 8.4983 8.11245 7.32342 8.27511 6.09036ZM26.1486 6.6124C26.3608 6.27976 26.904 5.72495 27.5565 6.05556C27.5276 6.1503 27.5102 6.25677 27.4928 6.36323C27.4809 6.43597 27.4691 6.50869 27.4535 6.57767C26.2978 6.24638 26.0661 7.34808 25.9082 8.35262C25.8886 8.4771 25.8677 8.59348 25.8475 8.70622C25.7913 9.01966 25.74 9.30495 25.7365 9.65778H24.9811C25.2283 8.48722 25.4405 7.28105 25.6163 6.0382H26.2688C26.2417 6.12239 26.2269 6.21896 26.212 6.31552C26.196 6.41968 26.18 6.52383 26.1486 6.6124ZM19.1949 8.10897C19.1779 8.33262 19.1956 8.62688 19.2636 8.80506C19.4978 9.41818 20.5052 9.27399 21.0321 8.99648C21.0158 9.0751 21.0023 9.15656 20.9889 9.238C20.9711 9.34534 20.9533 9.45265 20.9291 9.55338C19.9647 9.89095 18.7738 9.84305 18.5081 8.96168C18.2812 8.2085 18.6022 7.01146 19.0919 6.49064C19.5922 5.9586 20.5357 5.85624 21.53 6.02083C21.5195 6.10145 21.5065 6.17959 21.4936 6.25774C21.4745 6.3733 21.4553 6.48885 21.4441 6.6124C20.8379 6.39766 20.0779 6.33435 19.6929 6.71686C19.4139 6.99396 19.2331 7.60613 19.1949 8.10897ZM17.4437 6.64726C17.6823 6.22307 18.1969 5.77022 18.8516 6.0382C18.8428 6.12085 18.8271 6.19646 18.8114 6.27207C18.7913 6.36897 18.7712 6.46589 18.7657 6.57767C18.0729 6.32699 17.5928 6.78652 17.4093 7.32592C17.2453 7.80817 17.1757 8.43137 17.1116 9.00531C17.0859 9.23472 17.0612 9.45626 17.0317 9.65778H16.2933C16.3231 9.49909 16.3532 9.34062 16.3832 9.18215C16.5782 8.15338 16.7732 7.12458 16.9114 6.0382H17.5639C17.5462 6.11845 17.5321 6.20222 17.518 6.28598C17.497 6.41026 17.476 6.53452 17.4437 6.64726ZM6.60971 6.62983C6.72885 5.95009 6.84765 5.27001 6.95311 4.57642H7.81158C7.47391 6.22962 7.18905 7.93633 6.91878 9.65778H6.07745C6.15297 9.17239 6.24121 8.69994 6.32946 8.22751C6.39608 7.87083 6.4627 7.51416 6.52385 7.15193C5.8987 7.09157 5.1334 7.11163 4.46127 7.12924C4.39226 7.13105 4.32424 7.13283 4.25745 7.1345C4.10895 7.82645 3.99725 8.55573 3.88554 9.28506C3.86651 9.40936 3.84747 9.53366 3.82825 9.65778H2.98698C3.21613 8.50191 3.41573 7.31609 3.61534 6.13024C3.70266 5.61147 3.78998 5.0927 3.87978 4.57642H4.70385C4.63549 4.90536 4.57652 5.2438 4.51756 5.58223C4.45713 5.92905 4.3967 6.27586 4.32618 6.6124C4.91414 6.65682 5.52953 6.6467 6.14237 6.63662C6.29848 6.63405 6.45443 6.63149 6.60971 6.62983ZM9.16798 4.57642C9.38451 4.77129 9.19498 5.2394 9.04778 5.34211C8.95411 5.40745 8.63898 5.48258 8.49831 5.34211C8.35391 5.19785 8.43938 4.8096 8.53271 4.68082C8.59071 4.60075 8.67611 4.54967 8.82458 4.52426C8.98458 4.49683 9.09938 4.51473 9.16798 4.57642Z" fill="white"/>
</svg>
