<svg width="27" height="17" viewBox="0 0 27 17" fill="none" xmlns="http://www.w3.org/2000/svg">
<path id="Vector" d="M18.4083 0C16.5822 0 14.8911 0.568286 13.4994 1.53C14.3314 2.10436 15.0555 2.82079 15.636 3.64286H11.3628C11.9433 2.82079 12.6673 2.10436 13.4994 1.53C12.1077 0.568286 10.4166 0 8.59052 0C3.8461 0 0 3.80557 0 8.5C0 13.1944 3.8461 17 8.59052 17C10.4166 17 12.1077 16.4317 13.4994 15.47C12.6673 14.8956 11.9433 14.1792 11.3628 13.3571H15.6372C15.0555 14.1792 14.3314 14.8956 13.5006 15.47C14.8923 16.4317 16.5834 17 18.4095 17C23.1539 17 27 13.1944 27 8.5C26.9988 3.80557 23.1527 0 18.4083 0ZM16.8092 6.07143C16.9282 6.46607 17.0252 6.86921 17.0853 7.28571H9.91346C9.97359 6.86921 10.0705 6.46607 10.1896 6.07143H16.8092ZM10.1896 10.9286C10.0705 10.5339 9.97359 10.1308 9.91346 9.71429H17.0865C17.0264 10.1308 16.9295 10.5339 16.8104 10.9286H10.1896Z" fill="white"/>
</svg>
