<svg width="53" height="18" viewBox="0 0 53 18" fill="none" xmlns="http://www.w3.org/2000/svg">
<g id="Vector">
<path d="M21.8028 17.1398C21.6193 17.1398 21.4781 16.9908 21.4781 16.8282V6.47888C21.4781 4.4063 23.2427 2.71301 25.4025 2.71301H28.5786C30.7384 2.71301 32.4889 4.4063 32.4889 6.46533V8.65983C32.4889 10.7324 30.7243 12.4257 28.5645 12.4257H24.0755C23.892 12.4257 23.7508 12.2767 23.7508 12.1141C23.7508 11.9516 23.9061 11.8026 24.0755 11.8026H28.5645C30.3573 11.8026 31.8254 10.4073 31.8254 8.67338V6.47888C31.8254 4.7585 30.3714 3.36323 28.5786 3.36323H25.4025C23.6097 3.36323 22.1416 4.7585 22.1416 6.49242V16.8282C22.1416 16.9908 21.9863 17.1398 21.8028 17.1398ZM35.8909 12.4934C35.7074 12.4934 35.5662 12.3444 35.5662 12.1819V4.46048C35.5662 3.8509 35.0581 3.36323 34.4228 3.36323H33.0394C32.8559 3.36323 32.7147 3.21422 32.7147 3.05167C32.7147 2.88911 32.87 2.7401 33.0394 2.7401H34.4228C35.411 2.7401 36.2297 3.51224 36.2297 4.47403V12.1954C36.2156 12.3444 36.0744 12.4934 35.8909 12.4934Z" fill="white"/>
<path d="M35.5946 1.84568L34.9734 1.24965C34.8181 1.10064 34.8181 0.856803 34.9734 0.707794L35.5946 0.111757C35.7499 -0.0372523 36.004 -0.0372523 36.1593 0.111757L36.7806 0.707794C36.9359 0.856803 36.9359 1.10064 36.7806 1.24965L36.1593 1.84568C36.004 1.99469 35.7499 1.99469 35.5946 1.84568Z" fill="white"/>
<path d="M39.9 12.4246H38.5307C38.3471 12.4246 38.206 12.2756 38.206 12.1131C38.206 11.9505 38.3613 11.8015 38.5307 11.8015H39.9C40.5211 11.8015 41.0998 11.5712 41.5375 11.1513L44.7419 8.07628C45.0101 7.8189 45.3489 7.68344 45.73 7.68344C46.1112 7.68344 46.45 7.8189 46.7182 8.07628L49.9085 11.1377C50.3461 11.5577 50.9249 11.788 51.546 11.788H52.6612C52.8447 11.788 52.9859 11.937 52.9859 12.0995C52.9859 12.2621 52.8306 12.4111 52.6612 12.4111H51.546C50.7555 12.4111 49.9932 12.1131 49.4285 11.5712L46.2382 8.50977C46.0971 8.3743 45.9136 8.30657 45.7159 8.30657C45.5183 8.30657 45.3348 8.3743 45.1936 8.50977L41.9892 11.5848C41.4528 12.1266 40.7046 12.4246 39.9 12.4246ZM45.73 7.4667C45.363 7.4667 45.0101 7.33124 44.7419 7.07386L41.5375 3.99885C41.0998 3.57892 40.5211 3.34863 39.9 3.34863H38.5307C38.3471 3.34863 38.206 3.19962 38.206 3.03706C38.206 2.87451 38.3613 2.7255 38.5307 2.7255H39.9C40.6905 2.7255 41.4528 3.02352 42.0174 3.56537L45.2077 6.62683C45.3489 6.76229 45.5324 6.83003 45.73 6.83003C45.9277 6.83003 46.1112 6.76229 46.2523 6.62683L49.4427 3.56537C50.0073 3.02352 50.7555 2.7255 51.5601 2.7255H52.6753C52.8588 2.7255 53 2.87451 53 3.03706C53 3.19962 52.8447 3.34863 52.6753 3.34863H51.5601C50.939 3.34863 50.3602 3.57892 49.9226 3.99885L46.7323 7.06031C46.45 7.31769 46.0971 7.4667 45.73 7.4667Z" fill="white"/>
<path d="M13.657 14.0648C12.9653 14.0648 12.33 13.8074 11.836 13.3469L9.21031 10.8272C9.02679 10.6511 8.70212 10.6511 8.5186 10.8272L5.89295 13.3469C5.41299 13.8074 4.76363 14.0648 4.07193 14.0648H3.54962L6.86698 17.2482C7.9116 18.2506 9.59145 18.2506 10.6219 17.2482L13.9534 14.0513H13.657V14.0648Z" fill="white"/>
<path d="M4.07193 5.15121C4.76364 5.15121 5.39888 5.40859 5.89295 5.86916L8.53273 8.40232C8.71625 8.57842 9.02681 8.57842 9.22444 8.40232L11.8501 5.88271C12.3301 5.42214 12.9794 5.16476 13.6711 5.16476H13.9817L10.6361 1.96783C9.59147 0.96541 7.91161 0.96541 6.88111 1.96783L3.54962 5.15121H4.07193Z" fill="white"/>
<path d="M16.7209 7.80568L14.7022 5.86857C14.6599 5.88211 14.6034 5.89566 14.5611 5.89566H13.6435C13.1635 5.89566 12.7118 6.08531 12.373 6.39687L9.76148 8.93003C9.5215 9.16031 9.19683 9.28223 8.87215 9.28223C8.54747 9.28223 8.2228 9.16031 7.98282 8.93003L5.34305 6.39687C5.00426 6.07176 4.53842 5.89566 4.07258 5.89566H2.94327C2.90092 5.89566 2.84445 5.88211 2.8021 5.86857L0.783459 7.80568C-0.261153 8.80811 -0.261153 10.4201 0.783459 11.409L2.8021 13.3461C2.84445 13.3326 2.8868 13.319 2.94327 13.319H4.07258C4.55253 13.319 5.00426 13.1294 5.34305 12.8178L7.98282 10.2847C8.46277 9.82408 9.29564 9.82408 9.76148 10.2847L12.3871 12.8043C12.7259 13.1294 13.1918 13.3055 13.6576 13.3055H14.5752C14.6316 13.3055 14.674 13.319 14.7163 13.3326L16.735 11.3954C17.7655 10.4201 17.7655 8.80811 16.7209 7.80568Z" fill="white"/>
<path d="M24.5419 15.9343C24.3865 15.9343 24.2169 15.9749 24.0474 16.002V16.6251C24.1604 16.6658 24.3017 16.6928 24.4289 16.6928C24.7539 16.6928 24.9093 16.5845 24.9093 16.3136C24.9234 16.0562 24.7963 15.9343 24.5419 15.9343ZM23.9343 15.8665H24.0191L24.0332 15.9207C24.1887 15.8801 24.4006 15.8394 24.5419 15.8394C24.6691 15.8394 24.7821 15.853 24.881 15.9343C24.9941 16.0291 25.0365 16.1645 25.0365 16.3271C25.0365 16.4897 24.9799 16.6387 24.8245 16.7335C24.7115 16.7877 24.5702 16.8148 24.443 16.8148C24.3158 16.8148 24.1745 16.8012 24.0474 16.7606V17.1263H23.9343V15.8665Z" fill="white"/>
<path d="M25.8688 15.9344C25.5439 15.9344 25.3884 16.0292 25.3884 16.3137C25.3884 16.5846 25.5297 16.7065 25.8688 16.7065C26.1938 16.7065 26.3493 16.6117 26.3493 16.3272C26.3351 16.0563 26.1938 15.9344 25.8688 15.9344ZM26.2927 16.7065C26.1797 16.7878 26.0384 16.8013 25.8688 16.8013C25.6993 16.8013 25.5439 16.7742 25.4449 16.7065C25.3178 16.6252 25.2754 16.4898 25.2754 16.3272C25.2754 16.1647 25.3178 16.0292 25.4449 15.9479C25.558 15.8802 25.6993 15.8531 25.8688 15.8531C26.0384 15.8531 26.1797 15.8802 26.2927 15.9479C26.4199 16.0292 26.4623 16.1647 26.4623 16.3272C26.4623 16.4898 26.4058 16.6252 26.2927 16.7065Z" fill="white"/>
<path d="M27.8448 16.7736L27.4777 16.015H27.4636L27.1106 16.7736H27.0118L26.6164 15.866H26.7435L27.0682 16.6246L27.4212 15.866H27.5342L27.8871 16.6246H27.9013L28.2119 15.866H28.3389L27.9436 16.7736H27.8448Z" fill="white"/>
<path d="M29.045 15.9343C28.7341 15.9343 28.6352 16.0697 28.6211 16.2458H29.4689C29.4689 16.0426 29.3558 15.9343 29.045 15.9343ZM29.045 16.8012C28.8613 16.8012 28.7483 16.7741 28.6494 16.7064C28.5363 16.6116 28.4939 16.4761 28.4939 16.3271C28.4939 16.1781 28.5504 16.0291 28.6776 15.9343C28.7765 15.8665 28.9178 15.8394 29.045 15.8394C29.1722 15.8394 29.3135 15.853 29.4265 15.9343C29.5678 16.0291 29.5961 16.1781 29.5961 16.3542H28.6211C28.6211 16.5438 28.6917 16.7064 29.0591 16.7064C29.2287 16.7064 29.3982 16.6793 29.5537 16.6522V16.747C29.3841 16.7741 29.2145 16.8012 29.045 16.8012Z" fill="white"/>
<path d="M29.9055 16.7741V15.8665H29.9903L30.0044 15.9207C30.2023 15.8665 30.3012 15.8394 30.4707 15.8394H30.4849V15.9343H30.4566C30.3012 15.9343 30.2164 15.9478 30.0044 16.002V16.7606H29.9055V16.7741Z" fill="white"/>
<path d="M31.1342 15.9343C30.8234 15.9343 30.7245 16.0697 30.7103 16.2458H31.5581C31.5581 16.0426 31.4451 15.9343 31.1342 15.9343ZM31.1342 16.8012C30.9506 16.8012 30.8375 16.7741 30.7386 16.7064C30.6256 16.6116 30.5832 16.4761 30.5832 16.3271C30.5832 16.1781 30.6397 16.0291 30.7669 15.9343C30.8658 15.8665 31.0071 15.8394 31.1342 15.8394C31.2614 15.8394 31.4027 15.853 31.5157 15.9343C31.657 16.0291 31.6853 16.1781 31.6853 16.3542H30.7103C30.7103 16.5438 30.781 16.7064 31.1484 16.7064C31.3179 16.7064 31.4875 16.6793 31.6429 16.6522V16.747C31.4734 16.7741 31.3038 16.8012 31.1342 16.8012Z" fill="white"/>
<path d="M32.8992 15.9877C32.7862 15.9471 32.6449 15.92 32.5177 15.92C32.1927 15.92 32.0373 16.0284 32.0373 16.2993C32.0373 16.5567 32.1645 16.6786 32.4188 16.6786C32.5743 16.6786 32.7438 16.638 32.9134 16.6109V15.9877H32.8992ZM32.9134 16.7734L32.8992 16.7192C32.7438 16.7599 32.5319 16.8005 32.3906 16.8005C32.2634 16.8005 32.1504 16.787 32.0514 16.7057C31.9384 16.6109 31.896 16.4754 31.896 16.3129C31.896 16.1503 31.9525 16.0013 32.108 15.92C32.221 15.8658 32.3623 15.8387 32.4895 15.8387C32.6166 15.8387 32.7438 15.8658 32.8851 15.8929V15.473H32.9981V16.7734H32.9134Z" fill="white"/>
<path d="M34.6351 15.9336C34.4797 15.9336 34.3102 15.9742 34.1406 16.0013V16.6244C34.2678 16.6651 34.3949 16.6922 34.5221 16.6922C34.8471 16.6922 35.0025 16.5838 35.0025 16.3129C35.0025 16.0555 34.8753 15.9336 34.6351 15.9336ZM34.9177 16.7192C34.8047 16.7734 34.6634 16.8005 34.5362 16.8005C34.3949 16.8005 34.2536 16.7734 34.1123 16.7328V16.7734H34.0276V15.473H34.1406V15.9065C34.296 15.8794 34.4938 15.8252 34.6493 15.8252C34.7764 15.8252 34.8895 15.8387 34.9884 15.92C35.1014 16.0148 35.1438 16.1503 35.1438 16.3129C35.1297 16.4754 35.0732 16.638 34.9177 16.7192Z" fill="white"/>
<path d="M35.2699 17.1263V17.0315C35.3264 17.0315 35.3688 17.045 35.4112 17.045C35.5524 17.045 35.6372 17.0044 35.7079 16.8554L35.7503 16.7876L35.2557 15.88H35.3829L35.8068 16.6657H35.8209L36.2307 15.88H36.3578L35.8209 16.9095C35.722 17.0992 35.6231 17.1534 35.4253 17.1534C35.3688 17.1263 35.3264 17.1263 35.2699 17.1263Z" fill="white"/>
<path d="M37.8679 16.2588H37.5005V16.584H37.8679C38.1222 16.584 38.2211 16.5569 38.2211 16.4214C38.2211 16.2724 38.0939 16.2588 37.8679 16.2588ZM37.8113 15.7305H37.5146V16.0557H37.8113C38.0657 16.0557 38.1646 16.0286 38.1646 15.8931C38.1504 15.7441 38.0374 15.7305 37.8113 15.7305ZM38.3765 16.6923C38.2352 16.7736 38.0798 16.7736 37.7831 16.7736H37.2179V15.5409H37.7689C38.0233 15.5409 38.1787 15.5409 38.32 15.6222C38.4189 15.6764 38.4472 15.7576 38.4472 15.866C38.4472 16.0015 38.3907 16.0827 38.2494 16.1369V16.1505C38.4189 16.1911 38.5178 16.2724 38.5178 16.4485C38.5178 16.5569 38.4754 16.6381 38.3765 16.6923Z" fill="white"/>
<path d="M39.6326 16.3948C39.5196 16.3813 39.4065 16.3813 39.2935 16.3813C39.0957 16.3813 39.025 16.4219 39.025 16.5032C39.025 16.5845 39.0816 16.6251 39.237 16.6251C39.3642 16.6251 39.5055 16.598 39.6326 16.5709V16.3948ZM39.6891 16.7741L39.675 16.7199C39.5196 16.7606 39.3218 16.8012 39.1522 16.8012C39.0533 16.8012 38.9403 16.7877 38.8696 16.7335C38.799 16.6793 38.7707 16.6116 38.7707 16.5167C38.7707 16.4084 38.8131 16.3136 38.9261 16.2729C39.025 16.2323 39.1663 16.2187 39.2794 16.2187C39.3783 16.2187 39.5196 16.2187 39.6185 16.2323V16.2187C39.6185 16.0697 39.5196 16.0291 39.2511 16.0291C39.1522 16.0291 39.025 16.0291 38.8979 16.0426V15.853C39.025 15.8394 39.1805 15.8394 39.3076 15.8394C39.4772 15.8394 39.6468 15.853 39.7457 15.9207C39.8587 15.9884 39.8728 16.0968 39.8728 16.2323V16.7741H39.6891Z" fill="white"/>
<path d="M41.1431 16.7741V16.2729C41.1431 16.1104 41.0583 16.0426 40.9029 16.0426C40.7898 16.0426 40.6344 16.0697 40.5214 16.0968V16.7741H40.2388V15.8665H40.4507L40.4649 15.9207C40.6344 15.8801 40.8181 15.8394 40.9735 15.8394C41.0866 15.8394 41.2137 15.853 41.2985 15.9343C41.3692 16.002 41.3974 16.0833 41.3974 16.2187V16.7741H41.1431Z" fill="white"/>
<path d="M42.1591 16.8011C42.0319 16.8011 41.9048 16.7876 41.8059 16.7063C41.6928 16.6115 41.6504 16.476 41.6504 16.3134C41.6504 16.1644 41.6928 16.0154 41.8483 15.9206C41.9613 15.8529 42.1167 15.8258 42.2721 15.8258C42.3852 15.8258 42.4841 15.8393 42.6113 15.8393V16.029C42.5124 16.0154 42.3993 16.0154 42.3145 16.0154C42.0602 16.0154 41.9472 16.0967 41.9472 16.2999C41.9472 16.5031 42.0319 16.5844 42.2439 16.5844C42.3711 16.5844 42.5124 16.5573 42.6395 16.5437V16.7334C42.47 16.774 42.3145 16.8011 42.1591 16.8011Z" fill="white"/>
<path d="M43.4014 16.0291C43.1471 16.0291 43.0341 16.1104 43.0341 16.3136C43.0341 16.5167 43.1471 16.6116 43.4014 16.6116C43.6558 16.6116 43.7547 16.5438 43.7547 16.3271C43.7688 16.1239 43.6558 16.0291 43.4014 16.0291ZM43.8536 16.7064C43.7406 16.7877 43.5851 16.8012 43.4014 16.8012C43.2178 16.8012 43.0623 16.7741 42.9493 16.7064C42.8221 16.6251 42.7656 16.4897 42.7656 16.3271C42.7656 16.1645 42.808 16.0291 42.9493 15.9343C43.0623 15.8665 43.2178 15.8394 43.4014 15.8394C43.5851 15.8394 43.7406 15.8665 43.8536 15.9343C43.9808 16.0155 44.0373 16.151 44.0373 16.3136C44.0373 16.4761 43.9949 16.6251 43.8536 16.7064Z" fill="white"/>
<path d="M45.5613 16.8009C45.4058 16.8009 45.2222 16.7738 45.095 16.6789C44.9396 16.557 44.8972 16.3674 44.8972 16.1642C44.8972 15.9881 44.9537 15.7713 45.1656 15.6359C45.3211 15.5411 45.5189 15.514 45.7167 15.514C45.858 15.514 46.0134 15.5275 46.1689 15.5411V15.7578C46.0276 15.7443 45.858 15.7443 45.7308 15.7443C45.3635 15.7443 45.208 15.8797 45.208 16.1642C45.208 16.4487 45.3493 16.5841 45.6178 16.5841C45.8015 16.5841 45.9993 16.5435 46.1971 16.5164V16.7331C45.9852 16.7602 45.7732 16.8009 45.5613 16.8009Z" fill="white"/>
<path d="M46.9588 16.0021C46.7327 16.0021 46.6479 16.0834 46.6338 16.2188H47.2696C47.2696 16.0698 47.1848 16.0021 46.9588 16.0021ZM46.9305 16.8013C46.7751 16.8013 46.6338 16.7878 46.5207 16.7065C46.4077 16.6117 46.3653 16.4762 46.3653 16.3272C46.3653 16.1917 46.4077 16.0292 46.549 15.9479C46.662 15.8666 46.8175 15.8531 46.9588 15.8531C47.1001 15.8531 47.2555 15.8666 47.3685 15.9479C47.524 16.0563 47.5381 16.2053 47.5381 16.3949H46.6338C46.6338 16.5304 46.7186 16.6252 46.987 16.6252C47.1566 16.6252 47.3403 16.5981 47.4957 16.5846V16.7607C47.312 16.7742 47.1142 16.8013 46.9305 16.8013Z" fill="white"/>
<path d="M48.7236 16.7741V16.2729C48.7236 16.1104 48.6388 16.0426 48.4834 16.0426C48.3703 16.0426 48.2149 16.0697 48.1019 16.0968V16.7741H47.8334V15.8665H48.0453L48.0595 15.9207C48.229 15.8801 48.4127 15.8394 48.5681 15.8394C48.6812 15.8394 48.8083 15.853 48.8931 15.9343C48.9638 16.002 48.992 16.0833 48.992 16.2187V16.7741H48.7236Z" fill="white"/>
<path d="M49.7397 16.8008C49.6125 16.8008 49.4995 16.7601 49.4288 16.6653C49.3864 16.5976 49.3582 16.5163 49.3582 16.3944V16.0557H49.1603V15.8661H49.3582L49.3864 15.5951H49.6266V15.8661H50.0081V16.0557H49.6266V16.3537C49.6266 16.4215 49.6266 16.4892 49.6549 16.5298C49.6832 16.5976 49.7397 16.6111 49.8244 16.6111C49.881 16.6111 49.9657 16.5976 50.0081 16.5976V16.7737C49.9375 16.7872 49.8244 16.8008 49.7397 16.8008Z" fill="white"/>
<path d="M50.2614 16.7741V15.8665H50.4734L50.4875 15.9207C50.6571 15.8801 50.7984 15.8394 50.9538 15.8394C50.9679 15.8394 50.9679 15.8394 50.9821 15.8394V16.0562C50.9538 16.0562 50.9114 16.0562 50.8832 16.0562C50.756 16.0562 50.6571 16.0697 50.5158 16.0968V16.7741H50.2614Z" fill="white"/>
<path d="M51.9562 16.3948C51.8431 16.3813 51.7301 16.3813 51.6171 16.3813C51.4193 16.3813 51.3486 16.4219 51.3486 16.5032C51.3486 16.5845 51.4051 16.6251 51.5606 16.6251C51.6877 16.6251 51.829 16.598 51.9562 16.5709V16.3948ZM52.0127 16.7741L51.9986 16.7199C51.8431 16.7606 51.6453 16.8012 51.4758 16.8012C51.3769 16.8012 51.2638 16.7877 51.1932 16.7335C51.1225 16.6793 51.0943 16.6116 51.0943 16.5167C51.0943 16.4084 51.1367 16.3136 51.2497 16.2729C51.3486 16.2323 51.4899 16.2187 51.6029 16.2187C51.7019 16.2187 51.8431 16.2187 51.9421 16.2323V16.2187C51.9421 16.0697 51.8431 16.0291 51.5747 16.0291C51.4758 16.0291 51.3486 16.0291 51.2214 16.0426V15.853C51.3486 15.8394 51.504 15.8394 51.6312 15.8394C51.8008 15.8394 51.9703 15.853 52.0692 15.9207C52.1823 15.9884 52.1964 16.0968 52.1964 16.2323V16.7741H52.0127Z" fill="white"/>
<path d="M52.5624 15.473H52.8322V16.7734H52.5624V15.473Z" fill="white"/>
</g>
</svg>
