<svg width="44" height="17" viewBox="0 0 44 17" fill="none" xmlns="http://www.w3.org/2000/svg">
<g id="Vector">
<path d="M31.7393 1.86648L30.93 4.08619H32.557L31.7393 1.86648Z" fill="white"/>
<path d="M3.77012 1.86648L2.96994 4.08619H4.57673L3.77012 1.86648Z" fill="white"/>
<path d="M22.3391 2.18202C22.1995 2.09275 21.9845 2.08133 21.7806 2.08133H20.3291V3.31767H21.7613C21.9882 3.31767 22.1793 3.31351 22.3437 3.20348C22.4953 3.11317 22.5863 2.91697 22.5863 2.67406C22.5863 2.43531 22.4916 2.26299 22.3391 2.18202Z" fill="white"/>
<path d="M27.3876 11.76C27.2443 11.6634 27.033 11.6593 26.8253 11.6593H25.3738V12.91H26.806C27.0357 12.91 27.2314 12.9017 27.3903 12.7969C27.5428 12.691 27.6338 12.5011 27.6338 12.2613C27.631 12.0215 27.5401 11.8492 27.3876 11.76Z" fill="white"/>
<path d="M21.651 11.6589H20.115V13.0785H21.6363C22.0893 13.0785 22.3713 12.8251 22.3713 12.3443C22.3704 11.8541 22.0773 11.6589 21.651 11.6589Z" fill="white"/>
<path d="M43.4121 12.495C43.4039 12.4857 43.3947 12.4753 43.3864 12.468C43.6096 12.304 43.7584 12.0196 43.7584 11.6957V10.5093C43.7584 9.99963 43.3938 9.58858 42.9437 9.58858H40.583C39.8473 9.58858 39.2925 9.83355 38.8883 10.2031C38.7753 9.84601 38.4851 9.58858 38.1296 9.58858H35.7689C35.1195 9.58858 34.6079 9.77023 34.2184 10.0692C34.077 9.78373 33.8225 9.58858 33.5176 9.58858H29.5862C29.2693 9.58858 29.002 9.79722 28.867 10.0951C28.811 10.0505 28.7696 9.9986 28.7108 9.95915C28.1404 9.61453 27.5342 9.58858 26.9096 9.58858H24.1879C23.871 9.58858 23.6028 9.7993 23.4687 10.0993C23.0545 9.79515 22.4748 9.58858 21.6509 9.58858H17.8867C17.6598 9.58858 17.444 9.69238 17.2888 9.8813L16.3968 10.9681L15.5408 9.89376C15.3874 9.6955 15.1678 9.58754 14.9354 9.58754H10.1976C9.74751 9.58754 9.38377 9.99963 9.38377 10.5083V16.0793C9.38377 16.5889 9.74843 17 10.1976 17H14.8647C15.0916 17 15.3075 16.8931 15.4618 16.7042L16.361 15.6049L17.2144 16.6896C17.3687 16.8869 17.591 16.9979 17.8233 16.9979H20.1133C20.5643 16.9979 20.928 16.5858 20.928 16.0793V15.1285H21.5829C22.3793 15.1285 22.9552 14.9437 23.3741 14.6624V16.0793C23.3741 16.5869 23.7388 16.9979 24.1889 16.9979H25.3729C25.8239 16.9979 26.1876 16.5858 26.1876 16.0793V14.9624H26.6313C26.7396 14.9624 26.8159 14.9665 26.871 14.9707C26.8747 15.0703 26.8747 15.1897 26.8728 15.2686V16.0793C26.8728 16.5869 27.2393 16.9979 27.6876 16.9979H28.8698C29.002 16.9979 29.1214 16.9574 29.2298 16.8941C29.34 16.9554 29.4585 16.9979 29.589 16.9979H33.5213C33.6489 16.9979 33.7674 16.9574 33.8749 16.8983C33.9824 16.9574 34.0981 16.9979 34.2285 16.9979H36.5231C37.2533 16.9979 37.8485 16.7955 38.294 16.4384C38.4162 16.7664 38.7046 16.9979 39.0417 16.9979H41.3362C43.0052 16.9979 44 15.9962 44 14.3198C44 13.5434 43.8145 12.9652 43.4121 12.495ZM21.5839 14.2077H20.1142V16.0772H17.8243L16.373 14.2337L14.8647 16.0772H10.1976V10.5051H14.9354L16.3867 12.3321L17.8858 10.5051H21.65C22.5842 10.5051 23.6359 10.801 23.6359 12.3435C23.6359 13.8891 22.6145 14.2109 21.5839 14.2077ZM28.0991 13.4905C28.36 13.5984 28.574 13.7946 28.6732 13.9586C28.8413 14.2306 28.8633 14.4839 28.8688 14.9748V16.0793H27.6867V15.3817C27.6867 15.0475 27.7151 14.5503 27.4947 14.2908C27.3257 14.0925 27.0639 14.0458 26.6322 14.0458H25.3738V16.0793H24.1898V10.5083H26.9114C27.5066 10.5083 27.9402 10.5363 28.3287 10.7698C28.6998 11.0231 28.934 11.3719 28.934 12.0061C28.934 12.8967 28.4077 13.3503 28.0991 13.4905ZM33.5194 11.6594H30.7601V12.6736H33.4514V13.8112H30.7601V14.9177L33.5194 14.924V16.0793H29.5881V10.5083H33.5194V11.6594ZM36.524 16.0731H34.2295V14.8762H36.5139C36.7362 14.8762 36.8951 14.8451 36.9943 14.7382C37.0751 14.6531 37.132 14.5254 37.132 14.3738C37.132 14.2119 37.0714 14.0842 36.9888 14.0064C36.8969 13.9213 36.7757 13.8828 36.569 13.8828C35.4686 13.8424 34.088 13.9212 34.088 12.1597C34.088 11.3491 34.5362 10.501 35.7726 10.501H38.1333V11.6864H35.9719C35.7561 11.6864 35.6174 11.6968 35.4998 11.7881C35.3703 11.8795 35.3216 12.0134 35.3216 12.1898C35.3216 12.4006 35.4309 12.5407 35.5788 12.6051C35.7046 12.6538 35.8369 12.6684 36.0381 12.6684L36.6709 12.6891C37.3093 12.7088 37.7493 12.8334 38.0148 13.1376C38.2462 13.4064 38.3684 13.7469 38.3684 14.3188C38.3684 15.5198 37.708 16.0793 36.524 16.0731ZM41.3381 16.0731H39.0435V14.8762H41.3289C41.5512 14.8762 41.7101 14.8451 41.8084 14.7382C41.8892 14.6531 41.9461 14.5254 41.9461 14.3738C41.9461 14.2119 41.8855 14.0842 41.8028 14.0064C41.7119 13.9213 41.5907 13.8828 41.3831 13.8828C40.2817 13.8424 38.9021 13.9212 38.9021 12.1597C38.9021 11.3491 39.3503 10.501 40.5867 10.501H42.9474V11.6864H40.7869C40.5702 11.6864 40.4305 11.6968 40.3139 11.7881C40.1844 11.8795 40.1366 12.0134 40.1366 12.1898C40.1366 12.4006 40.2468 12.5407 40.3929 12.6051C40.5196 12.6538 40.651 12.6684 40.8521 12.6684L41.485 12.6891C42.1243 12.7088 42.5652 12.8334 42.8307 13.1376C43.0603 13.4064 43.1843 13.7469 43.1843 14.3188C43.1843 15.5198 42.5221 16.0793 41.3381 16.0731Z" fill="white"/>
<path d="M39.714 0H38.508C38.057 0 37.6932 0.412063 37.6932 0.919616V1.49463L37.1339 0.445276C36.985 0.170222 36.7214 0.00103737 36.4376 0.00103737H34.6418C34.1918 0.00103737 33.828 0.4131 33.828 0.920653V1.70222L33.3954 0.558411C33.2677 0.22108 32.9738 0.00103737 32.6486 0.00103737H30.8832C30.7041 0.00103737 30.5332 0.0674662 30.3973 0.183715C30.2622 0.0685041 30.0923 0.00103737 29.9095 0.00103737H28.7714C27.8033 0.00103737 27.0868 0.265713 26.5596 0.782608C26.499 0.343559 26.1766 0.00103737 25.7706 0.00103737H24.5673C24.2458 0.00103737 23.9766 0.215891 23.8425 0.518969C23.792 0.477452 23.7534 0.427632 23.6965 0.390266C23.1435 0.0290628 22.5621 0.00103737 21.8612 0.00103737H19.1515C18.9991 0.00103737 18.8659 0.061238 18.7428 0.143235C18.6225 0.061238 18.4874 0.00103737 18.3349 0.00103737H14.3999C14.2337 0.00103737 14.0894 0.0705798 13.9608 0.16607C13.8313 0.0705798 13.6871 0.00103737 13.5218 0.00103737H11.5579C11.2328 0.00103737 10.9379 0.22212 10.8102 0.562564L10.1103 2.4267L9.33966 0.535577C9.20555 0.209664 8.91621 0.00103737 8.60023 0.00103737H6.6768C6.22672 0.00103737 5.86297 0.4131 5.86297 0.920653V1.7209L5.42115 0.556336C5.29256 0.219006 4.99862 0 4.67254 0H2.92364C2.59755 0 2.30362 0.220043 2.17502 0.557374L0.0660474 6.128C-0.0423407 6.41343 -0.0157029 6.73727 0.13402 6.99676C0.284661 7.25416 0.540016 7.40985 0.813741 7.40985H2.09419C2.42119 7.40985 2.71788 7.18566 2.84372 6.84314L3.09265 6.1664H4.4576L4.70285 6.83899C4.82777 7.18358 5.12538 7.40882 5.45606 7.40882H7.85254C8.30262 7.40882 8.66637 6.99676 8.66637 6.4892V6.46741L8.82068 6.86286C8.95111 7.195 9.24321 7.40985 9.5647 7.40985L10.5999 7.41193C10.9232 7.41193 11.2135 7.19708 11.3439 6.8639L11.5001 6.46948V6.49232C11.5001 6.99987 11.8638 7.41089 12.3139 7.41089H13.5218C13.6871 7.41089 13.8313 7.34031 13.9608 7.24586C14.0894 7.34031 14.2337 7.41089 14.3999 7.41089H18.3349C18.4874 7.41089 18.6225 7.35069 18.7428 7.26869C18.865 7.35069 18.9991 7.41089 19.1515 7.41089H20.3309C20.781 7.41089 21.1448 6.99883 21.1448 6.49128V5.38483H21.5949C21.6968 5.38483 21.7694 5.38795 21.8236 5.3921C21.8291 5.48655 21.8273 5.59865 21.8273 5.67338L21.8254 5.79586L21.83 6.49854C21.8337 7.00298 22.1983 7.41089 22.6448 7.41089H23.8333C23.9665 7.41089 24.0869 7.36419 24.198 7.29983C24.311 7.36522 24.4322 7.41089 24.5663 7.41089H25.7696C26.1646 7.41089 26.4769 7.08913 26.5532 6.6698C27.2209 7.30399 28.1615 7.41089 28.6851 7.41089H30.0657C30.3945 7.41089 30.6921 7.18255 30.8161 6.83484L31.0559 6.16744H32.4135L32.6624 6.84418C32.7882 7.18566 33.084 7.40985 33.4138 7.40985H35.8111C36.2612 7.40985 36.625 6.99779 36.625 6.49024V5.6111L37.3479 6.96562C37.4958 7.24067 37.7594 7.40985 38.046 7.40985H39.714C40.1641 7.40985 40.5279 6.99779 40.5279 6.49024V0.919616C40.5279 0.412063 40.1623 0 39.714 0ZM13.5209 6.4892H12.313L12.3084 2.12674L10.5999 6.4892H9.5647L7.85346 2.12259V6.4892H5.45514L5.0023 5.24679H2.54979L2.09235 6.4892H0.811904L2.9218 0.918576H4.6707L6.67588 6.19339V0.918576H8.59931L10.1415 4.69772L11.557 0.918576H13.5209V6.4892ZM18.334 2.07899H15.5766V3.08268H18.2688V4.22442H15.5766V5.33709H18.334V6.4892H14.399V0.918576H18.334V2.07899ZM23.0526 3.90473C23.3107 4.01683 23.5311 4.21196 23.6359 4.37388C23.803 4.65101 23.8315 4.89804 23.8315 5.39521V6.48817H22.6429L22.6374 5.78548C22.6374 5.45126 22.6659 4.96966 22.4519 4.70083C22.2801 4.5057 22.0174 4.46314 21.593 4.46314H20.33V6.4892H19.1497V0.919616H21.8594C22.462 0.919616 22.9056 0.937261 23.2859 1.18637C23.6588 1.43547 23.882 1.79875 23.882 2.42048C23.882 3.30792 23.3575 3.76772 23.0526 3.90473ZM25.7706 6.4892H24.5673V0.918576H25.7706V6.4892ZM39.714 6.4892H38.045L35.8102 2.30838V6.4892H33.4128L32.9536 5.24679H30.5047L30.062 6.4892H28.6823C28.1101 6.4892 27.3872 6.34597 26.9775 5.8737C26.5605 5.4004 26.3456 4.75896 26.3456 3.74696C26.3456 2.92076 26.4751 2.16514 26.9766 1.56729C27.356 1.12305 27.9521 0.918576 28.7659 0.918576H29.904V2.11221H28.788C28.359 2.11221 28.1156 2.18383 27.8823 2.44227C27.6811 2.67685 27.5443 3.12005 27.5443 3.70441C27.5443 4.30019 27.649 4.72989 27.8694 5.01118C28.0522 5.23226 28.3829 5.29869 28.6906 5.29869H29.2188L30.8832 0.918576H32.6486L34.6418 6.18716V0.918576H36.4376L38.508 4.7984V0.918576H39.714V6.4892ZM29.1986 3.03286L28.6869 4.38115C28.574 4.38115 28.4977 4.36662 28.4555 4.35416C28.416 4.27112 28.3618 4.08741 28.3618 3.70545C28.3618 3.31933 28.4444 3.11901 28.4555 3.10137C28.4894 3.064 28.5179 3.03182 28.7944 3.03182L29.1986 3.03286Z" fill="white"/>
<path d="M17.1316 13.301L18.9415 15.5717V11.1061L17.1316 13.301Z" fill="white"/>
<path d="M14.3259 11.6593H11.3742V12.6714H13.9594V13.8092H11.3742V14.9178H14.2689L15.6144 13.2808L14.3259 11.6593Z" fill="white"/>
</g>
</svg>
