<svg width="26" height="21" viewBox="0 0 26 21" fill="none" xmlns="http://www.w3.org/2000/svg">
<g id="Vector">
<path d="M10.4651 21L15.1214 20.9998L15.173 21C15.1727 21 15.1731 21 15.173 21C17.9041 21 20.6496 19.8882 22.7048 17.9498C24.8298 15.9458 26 13.3299 26 10.5843C26 7.63364 24.8228 4.91744 22.6851 2.93616C20.6717 1.07031 17.9193 0 15.1245 0H10.5054C4.51634 0 0 4.5503 0 10.5843C0 16.3275 4.69469 21 10.4651 21ZM18.8776 10.4822C18.8776 15.1149 15.1355 18.884 10.5357 18.884C5.93404 18.884 2.19025 15.1149 2.19025 10.4822C2.19025 5.84942 5.93404 2.08029 10.5357 2.08029C15.1353 2.08045 18.8776 5.84942 18.8776 10.4822Z" fill="white"/>
<path d="M16.2223 10.4822C16.2177 8.04507 14.7051 5.96209 12.5701 5.13496V15.825C14.7051 14.9991 16.2177 12.9207 16.2223 10.4822Z" fill="white"/>
<path d="M4.84957 10.4822C4.8538 12.9205 6.36236 14.9991 8.49809 15.825V5.13496C6.36236 5.96667 4.8538 8.04507 4.84957 10.4822Z" fill="white"/>
</g>
</svg>
