<svg width="25" height="22" viewBox="0 0 25 22" fill="none" xmlns="http://www.w3.org/2000/svg">
<path id="Vector" d="M24.8761 0.351696C24.7401 0.131834 24.512 0 24.2676 0H19.2031C18.8992 0 18.627 0.203124 18.5187 0.5106L14.4425 12.0831L12.4434 2.73484C12.1081 1.16667 10.8351 0.0714963 9.34797 0.0714963H0.732098C0.346241 0.0714963 0.0269509 0.395916 0.00158312 0.812909C-0.0235939 1.23011 0.254307 1.5971 0.636921 1.65185C0.657139 1.65475 2.68122 1.95416 5.15543 3.13716C5.56036 3.33078 5.99295 3.55643 6.44137 3.817L10.6488 21.4055C10.7325 21.7555 11.0242 22 11.3579 22H16.5217C16.8187 22 17.0863 21.8058 17.1992 21.5082L24.9449 1.09518C25.0378 0.85031 25.0121 0.571557 24.8761 0.351696ZM5.69063 1.65867H9.34797C10.1496 1.65867 10.8357 2.24841 11.0163 3.09294L11.6606 6.10632C11.1315 5.50232 10.5572 4.93325 9.94002 4.40219C8.69127 3.32809 7.26553 2.40691 5.70208 1.66405C5.69826 1.66219 5.69445 1.66033 5.69063 1.65867Z" fill="white"/>
</svg>
