<svg width="44" height="22" viewBox="0 0 44 22" fill="none" xmlns="http://www.w3.org/2000/svg">
<g id="Vector">
<path d="M1.37282 17.6218C1.17609 17.3041 0.913796 16.7965 0.751788 16.4207C-0.193255 14.2201 -0.235686 11.9419 0.558922 9.75677C1.43453 7.35853 3.10861 5.52594 5.27256 4.58834C7.99198 3.4144 10.9968 3.64299 13.6044 5.19662C15.2592 6.14972 16.4318 7.62199 17.3228 9.70641C17.4347 9.97374 17.535 10.2566 17.6353 10.5007L1.37282 17.6218ZM6.80392 8.12566C4.87141 8.95865 3.87622 10.7796 4.08451 12.9105L12.262 9.37321C10.8541 7.71497 9.02574 7.16481 6.80392 8.12566ZM13.2804 15.8202C13.2765 15.8202 13.2765 15.8241 13.2765 15.8241L13.1068 15.7078C12.6169 16.5021 11.857 17.1491 10.8965 17.5675C9.06817 18.3657 7.3748 18.1603 6.15589 17.0871L6.04403 17.2576C6.04403 17.2576 6.04403 17.2537 6.04017 17.2537L3.96493 20.3726C4.48181 20.7329 5.03341 21.0351 5.61201 21.2792C7.90326 22.2362 10.2485 22.1897 12.559 21.1824C14.2293 20.454 15.5408 19.3459 16.4356 17.9395L13.2804 15.8202Z" fill="white"/>
<path d="M23.317 0V17.335L26.0017 18.4276L24.4781 22L21.5156 20.7601C20.8522 20.4695 20.397 20.0278 20.0576 19.528C19.7297 19.0204 19.4867 18.3191 19.4867 17.3815V0H23.317Z" fill="white"/>
<path d="M30.2679 12.9211C30.2679 11.4448 30.9198 10.1197 31.9459 9.22078L29.1917 6.13656C27.3248 7.79491 26.1483 10.2166 26.1483 12.9133C26.1445 15.6139 27.3209 18.0395 29.184 19.6978L31.9343 16.6136C30.9121 15.7108 30.2679 14.3934 30.2679 12.9211Z" fill="white"/>
<path d="M35.159 17.8381C34.619 17.8381 34.0944 17.7451 33.6083 17.5824L32.293 21.507C33.1918 21.8092 34.1522 21.9758 35.1551 21.9758C39.5139 21.9797 43.1514 18.8725 43.9961 14.7465L39.9536 13.9174C39.4946 16.1606 37.5235 17.842 35.159 17.8381Z" fill="white"/>
<path d="M35.1706 3.8665C34.1716 3.8665 33.2111 4.02923 32.3124 4.32758L33.6161 8.25638C34.106 8.09365 34.6267 8.00453 35.1668 8.00453C37.5351 8.00841 39.5101 9.69771 39.9575 11.945L44 11.1235C43.1707 6.9894 39.5332 3.87038 35.1706 3.8665Z" fill="white"/>
</g>
</svg>
