<svg width="32" height="32" viewBox="0 0 32 32" fill="none" xmlns="http://www.w3.org/2000/svg">
<path d="M28.4441 2.2986L2.29834 28.4443L3.5554 29.7014L29.7011 3.55567L28.4441 2.2986Z" fill="#2A1246"/>
<path d="M0 7.11111C0 11.0382 3.184 14.2222 7.11111 14.2222C11.0382 14.2222 14.2222 11.0382 14.2222 7.11111C14.2222 3.184 11.0382 0 7.11111 0C3.184 0 0 3.184 0 7.11111ZM7.11111 1.77778C10.0516 1.77778 12.4444 4.17067 12.4444 7.11111C12.4444 10.0516 10.0516 12.4444 7.11111 12.4444C4.17067 12.4444 1.77778 10.0516 1.77778 7.11111C1.77778 4.17067 4.17067 1.77778 7.11111 1.77778Z" fill="#2A1246"/>
<path d="M24.8889 32C28.816 32 32 28.816 32 24.8889C32 20.9618 28.816 17.7778 24.8889 17.7778C20.9618 17.7778 17.7778 20.9618 17.7778 24.8889C17.7778 28.816 20.9618 32 24.8889 32ZM24.8889 19.5556C27.8293 19.5556 30.2222 21.9484 30.2222 24.8889C30.2222 27.8293 27.8293 30.2222 24.8889 30.2222C21.9484 30.2222 19.5556 27.8293 19.5556 24.8889C19.5556 21.9484 21.9484 19.5556 24.8889 19.5556Z" fill="#2A1246"/>
</svg>
