<svg width="52" height="20" viewBox="0 0 52 20" fill="none" xmlns="http://www.w3.org/2000/svg">
<g id="Group 1784">
<rect id="Rectangle 1355" width="52" height="20" rx="10" fill="#A26EE5"/>
<g id="Vector">
<path fill-rule="evenodd" clip-rule="evenodd" d="M52 10C52 4.48346 47.4372 1.44351e-06 41.7943 7.21754e-07L10.2057 0C4.5628 0 4.52481e-06 4.48345 4.52481e-06 10C4.52481e-06 15.5165 4.5628 20 10.2057 20H41.7943C47.4372 20 52 15.5165 52 10ZM41.7943 1.51363C46.5642 1.51363 50.4426 5.30681 50.4426 10C50.4426 14.6932 46.5642 18.4864 41.7943 18.4864H27.2441V1.51363H41.7943ZM26.0296 1.51363V18.4864H10.2057C5.43583 18.4864 1.5574 14.6932 1.5574 10C1.5574 5.30681 5.43583 1.51363 10.2057 1.51363H26.0296Z" fill="#2A1246"/>
<path d="M31.2298 3.1952C31.2298 2.8663 31.5016 2.59978 31.837 2.59978H34.144C37.4152 2.59978 40.2409 4.88223 40.8627 8.02718C40.9263 8.34984 40.7111 8.66229 40.3821 8.72524C40.053 8.78761 39.7343 8.57666 39.6701 8.254C39.1589 5.66818 36.8345 3.79119 34.144 3.79119H31.837C31.5016 3.79119 31.2298 3.5241 31.2298 3.1952Z" fill="#2A1246"/>
</g>
</g>
</svg>
