<svg width="97" height="64" viewBox="0 0 97 64" fill="none" xmlns="http://www.w3.org/2000/svg">
<g id="Vector">
<path d="M40.8468 20.2982V21.7827C40.8468 23.1309 42.4247 23.8807 43.4767 23.0324L49.59 18.1093L55.7034 23.0324C56.763 23.8807 58.3333 23.1385 58.3333 21.7827V20.2982L49.59 13.2544L40.8468 20.2982Z" fill="white"/>
<path d="M62.1217 9.36142L51.1984 0.568047C50.2608 -0.189349 48.9192 -0.189349 47.9817 0.568047L37.0584 9.36899C36.5476 9.77799 36.2504 10.3991 36.2504 11.058V18.8667C36.2504 20.9269 38.6515 22.0705 40.2675 20.7678L40.8545 20.2982V16.6627C40.8545 16.231 41.0526 15.8296 41.388 15.5569L48.5457 9.79314C49.1632 9.30083 50.0398 9.30083 50.6572 9.79314L57.8149 15.5569C58.1503 15.8296 58.3485 16.231 58.3485 16.6627V20.2982L58.9354 20.7678C60.5438 22.063 62.9526 20.9269 62.9526 18.8667V11.058C62.9526 10.4066 62.6553 9.78556 62.1446 9.36899" fill="white"/>
<path d="M0.629586 60.872V57.7591H1.0717V60.872H0.629586ZM2.43616 62.6594C2.08552 62.6594 1.77299 62.5837 1.50619 62.4322C1.23178 62.2807 1.01834 62.0686 0.865889 61.796C0.713435 61.5233 0.637208 61.2204 0.637208 60.872H1.07932C1.07932 61.1446 1.1403 61.3794 1.25465 61.5915C1.36899 61.8036 1.53668 61.9626 1.7425 62.0838C1.94831 62.205 2.19223 62.258 2.45903 62.258C2.72582 62.258 2.96975 62.1974 3.17556 62.0838C3.38137 61.9626 3.54907 61.8036 3.66341 61.5915C3.77775 61.3794 3.83873 61.1446 3.83873 60.872H4.28085C4.28085 61.2204 4.20462 61.5233 4.04454 61.796C3.88447 62.0686 3.67103 62.2731 3.39662 62.4322C3.1222 62.5837 2.80205 62.6594 2.44378 62.6594H2.43616ZM3.83111 60.872V57.7591H4.27323V60.872H3.83111Z" fill="white"/>
<path d="M5.82063 62.5458V59.1224H6.20939L6.23988 59.751V62.5458H5.82063ZM8.29038 60.7962C8.29038 60.4175 8.24464 60.1297 8.15317 59.9328C8.0617 59.7359 7.93973 59.5995 7.78728 59.5314C7.63483 59.4632 7.4595 59.4253 7.26894 59.4253C6.94116 59.4253 6.68961 59.5465 6.50667 59.7813C6.32373 60.0237 6.23225 60.3569 6.23225 60.7811H5.9807C5.9807 60.4175 6.03406 60.0994 6.13316 59.8419C6.23988 59.5844 6.39233 59.3799 6.59814 59.2436C6.80395 59.1072 7.04788 59.0315 7.34516 59.0315C7.75679 59.0315 8.09219 59.1602 8.34373 59.4178C8.59528 59.6753 8.71725 60.0615 8.70962 60.5841L8.298 60.7886L8.29038 60.7962ZM8.29038 62.5458V60.7962L8.702 60.5917V62.5458H8.29038Z" fill="white"/>
<path d="M10.0436 62.5458V57.7515H10.4552V62.5458H10.0436Z" fill="white"/>
<path d="M12.1475 58.2362C12.0712 58.2362 12.0102 58.2059 11.9569 58.1529C11.9035 58.0999 11.873 58.0317 11.873 57.9636C11.873 57.8878 11.9035 57.8196 11.9569 57.7666C12.0102 57.7136 12.0788 57.6909 12.1475 57.6909C12.2237 57.6909 12.2923 57.7212 12.3456 57.7666C12.399 57.8121 12.4219 57.8878 12.4219 57.9636C12.4219 58.0393 12.399 58.0999 12.3456 58.1529C12.2923 58.2059 12.2237 58.2362 12.1475 58.2362ZM11.934 62.5458L11.9493 59.1224H12.3609L12.3456 62.5458H11.934Z" fill="white"/>
<path d="M13.8321 62.5458V59.1224H14.2208L14.2513 59.751V62.5458H13.8321ZM16.3018 60.7962C16.3018 60.4175 16.2561 60.1297 16.1646 59.9328C16.0731 59.7359 15.9512 59.5995 15.7987 59.5314C15.6463 59.4632 15.4709 59.4253 15.2804 59.4253C14.9526 59.4253 14.701 59.5465 14.5181 59.7813C14.3352 60.0237 14.2437 60.3569 14.2437 60.7811H13.9921C13.9921 60.4175 14.0455 60.0994 14.1446 59.8419C14.2513 59.5844 14.4038 59.3799 14.6096 59.2436C14.8154 59.1072 15.0593 59.0315 15.3566 59.0315C15.7682 59.0315 16.1036 59.1602 16.3552 59.4178C16.6067 59.6753 16.7287 60.0615 16.7211 60.5841L16.3094 60.7886L16.3018 60.7962ZM16.3018 62.5458V60.7962L16.7134 60.5917V62.5458H16.3018ZM18.7792 60.7962C18.7792 60.4175 18.7334 60.1297 18.642 59.9328C18.5505 59.7359 18.4285 59.5995 18.2761 59.5314C18.1236 59.4632 17.9483 59.4253 17.7577 59.4253C17.43 59.4253 17.1784 59.5465 16.9955 59.7813C16.8125 60.0161 16.7211 60.3569 16.7211 60.7811H16.4695C16.4695 60.4175 16.5229 60.0994 16.622 59.8419C16.7211 59.5844 16.8811 59.3799 17.0869 59.2436C17.2928 59.1072 17.5367 59.0315 17.834 59.0315C18.2456 59.0315 18.581 59.1602 18.8325 59.4178C19.0841 59.6753 19.2061 60.0615 19.1984 60.5841L18.7868 60.7886L18.7792 60.7962ZM18.7792 62.5458V60.7962L19.1908 60.5917V62.5458H18.7792Z" fill="white"/>
<path d="M20.7763 58.2362C20.7001 58.2362 20.6391 58.2059 20.5858 58.1529C20.5324 58.0999 20.5019 58.0317 20.5019 57.9636C20.5019 57.8878 20.5324 57.8196 20.5858 57.7666C20.6391 57.7136 20.7077 57.6909 20.7763 57.6909C20.8525 57.6909 20.9212 57.7212 20.9745 57.7666C21.0279 57.8121 21.0507 57.8878 21.0507 57.9636C21.0507 58.0393 21.0279 58.0999 20.9745 58.1529C20.9212 58.2059 20.8525 58.2362 20.7763 58.2362ZM20.5629 62.5458L20.5781 59.1224H20.9898L20.9745 62.5458H20.5629Z" fill="white"/>
<path d="M22.0798 59.5011V59.1224H24.1989V59.5011H22.0798ZM23.7034 62.6291C23.3833 62.6291 23.1394 62.5458 22.9564 62.3792C22.7735 62.2125 22.6896 61.9778 22.6896 61.6672V58.0544H23.1012V61.6672C23.1012 61.849 23.1546 61.9929 23.2613 62.0989C23.368 62.205 23.5129 62.2504 23.7034 62.2504C23.7568 62.2504 23.8101 62.2428 23.8635 62.2277C23.9169 62.2125 23.9931 62.1671 24.0922 62.0989L24.2675 62.4549C24.1455 62.5307 24.0388 62.5761 23.955 62.5912C23.8711 62.614 23.7873 62.6215 23.7034 62.6215V62.6291Z" fill="white"/>
<path d="M26.8973 62.6291C26.5696 62.6291 26.2723 62.5534 26.0207 62.4019C25.7692 62.2504 25.5634 62.0383 25.4185 61.7657C25.2737 61.493 25.1975 61.1901 25.1975 60.8341C25.1975 60.4781 25.2661 60.1751 25.4109 59.9025C25.5557 59.6298 25.7463 59.4253 25.9979 59.2663C26.2494 59.1148 26.5314 59.0391 26.8516 59.0391C27.1717 59.0391 27.4538 59.1148 27.6825 59.2738C27.9111 59.4329 28.0865 59.645 28.2008 59.9252C28.3228 60.1979 28.3761 60.5235 28.3761 60.8795H27.9645C27.9645 60.5917 27.9264 60.3418 27.8425 60.1221C27.7587 59.9025 27.6367 59.7283 27.469 59.6071C27.3013 59.4783 27.0955 59.4178 26.8516 59.4178C26.6077 59.4178 26.3942 59.4783 26.2037 59.5995C26.0131 59.7207 25.8683 59.8873 25.7616 60.0994C25.6548 60.3115 25.6015 60.5538 25.6015 60.8341C25.6015 61.1143 25.6548 61.3567 25.7692 61.5688C25.8835 61.7808 26.0283 61.9475 26.2265 62.0686C26.4171 62.1898 26.6382 62.2504 26.8897 62.2504C27.1565 62.2504 27.3852 62.1823 27.5681 62.0535C27.7511 61.9247 27.8959 61.7581 28.0026 61.5536L28.3456 61.7657C28.2618 61.9323 28.1474 62.0838 28.0026 62.2125C27.8578 62.3413 27.6977 62.4473 27.5071 62.5155C27.3166 62.5837 27.1108 62.6215 26.8821 62.6215L26.8973 62.6291ZM25.4871 60.8871V60.5084H28.0941V60.8871H25.4871Z" fill="white"/>
<path d="M30.9069 62.6291C30.602 62.6291 30.3352 62.5534 30.0989 62.4019C29.8626 62.2504 29.6796 62.0383 29.55 61.7657C29.4204 61.493 29.3518 61.1825 29.3518 60.8417C29.3518 60.5008 29.4204 60.1827 29.55 59.9101C29.6796 59.6374 29.8702 59.4329 30.0989 59.2738C30.3352 59.1224 30.602 59.0466 30.9069 59.0466C31.2118 59.0466 31.4557 59.1224 31.6844 59.2738C31.9054 59.4253 32.0807 59.6374 32.2103 59.9101C32.3399 60.1827 32.4009 60.4857 32.4009 60.8417C32.4009 61.1976 32.3399 61.5006 32.2103 61.7657C32.0807 62.0383 31.9131 62.2504 31.6844 62.4019C31.4557 62.5534 31.2041 62.6291 30.9069 62.6291ZM30.9907 62.258C31.2118 62.258 31.4023 62.1974 31.5777 62.0762C31.7453 61.955 31.8826 61.7884 31.974 61.5763C32.0731 61.3643 32.1189 61.1143 32.1189 60.8341C32.1189 60.5538 32.0731 60.3115 31.974 60.0918C31.8749 59.8798 31.7453 59.7131 31.5777 59.592C31.41 59.4708 31.2118 59.4102 30.9831 59.4102C30.7468 59.4102 30.5333 59.4708 30.3504 59.592C30.1675 59.7131 30.0226 59.8798 29.9235 60.0918C29.8244 60.3039 29.7711 60.5538 29.7711 60.8341C29.7711 61.1143 29.8244 61.3567 29.9312 61.5763C30.0379 61.7884 30.1827 61.955 30.3656 62.0762C30.5486 62.1974 30.762 62.258 30.9983 62.258H30.9907ZM32.1417 62.5458L32.1189 61.9096V57.7515H32.5305V62.5458H32.1417Z" fill="white"/>
<path d="M37.4547 62.6291C37.1498 62.6291 36.883 62.5534 36.6467 62.4019C36.4104 62.2504 36.2275 62.0383 36.0979 61.7657C35.9683 61.493 35.8997 61.1825 35.8997 60.8417C35.8997 60.5008 35.9683 60.1827 36.0979 59.9101C36.2275 59.6374 36.4181 59.4329 36.6467 59.2738C36.883 59.1224 37.1498 59.0466 37.4547 59.0466C37.7596 59.0466 38.0036 59.1224 38.2323 59.2738C38.4533 59.4253 38.6286 59.6374 38.7582 59.9101C38.8878 60.1827 38.9488 60.4857 38.9488 60.8417C38.9488 61.1976 38.8878 61.5006 38.7582 61.7657C38.6286 62.0383 38.4609 62.2504 38.2323 62.4019C38.0036 62.5534 37.752 62.6291 37.4547 62.6291ZM37.5386 62.258C37.7596 62.258 37.9502 62.1974 38.1255 62.0762C38.2932 61.955 38.4304 61.7884 38.5219 61.5763C38.621 61.3643 38.6667 61.1143 38.6667 60.8341C38.6667 60.5538 38.621 60.3115 38.5219 60.0918C38.4228 59.8798 38.2932 59.7131 38.1255 59.592C37.9578 59.4708 37.7596 59.4102 37.531 59.4102C37.2947 59.4102 37.0812 59.4708 36.8983 59.592C36.7153 59.7131 36.5705 59.8798 36.4714 60.0918C36.3723 60.3039 36.319 60.5538 36.319 60.8341C36.319 61.1143 36.3723 61.3567 36.479 61.5763C36.5858 61.7884 36.7306 61.955 36.9135 62.0762C37.0965 62.1974 37.3099 62.258 37.5462 62.258H37.5386ZM38.6896 62.5458L38.6667 61.9096V57.7515H39.0784V62.5458H38.6896Z" fill="white"/>
<path d="M40.7706 58.2362C40.6944 58.2362 40.6334 58.2059 40.58 58.1529C40.5267 58.0999 40.4962 58.0317 40.4962 57.9636C40.4962 57.8878 40.5267 57.8196 40.58 57.7666C40.6334 57.7136 40.702 57.6909 40.7706 57.6909C40.8468 57.6909 40.9154 57.7212 40.9688 57.7666C41.0222 57.8121 41.045 57.8878 41.045 57.9636C41.045 58.0393 41.0222 58.0999 40.9688 58.1529C40.9154 58.2059 40.8468 58.2362 40.7706 58.2362ZM40.5572 62.5458L40.5724 59.1224H40.984L40.9688 62.5458H40.5572Z" fill="white"/>
<path d="M43.8044 62.5458C43.4995 62.5458 43.2327 62.4701 42.9964 62.3186C42.7601 62.1671 42.5772 61.9626 42.4476 61.6899C42.318 61.4173 42.2494 61.1219 42.2494 60.7735C42.2494 60.4251 42.318 60.1297 42.4476 59.8722C42.5772 59.6147 42.7677 59.4102 42.9964 59.2587C43.2327 59.1072 43.4995 59.0391 43.8044 59.0391C44.1093 59.0391 44.3533 59.1148 44.5819 59.2587C44.803 59.4102 44.9783 59.6147 45.1079 59.8722C45.2375 60.1297 45.2985 60.4327 45.2985 60.7735C45.2985 61.1143 45.2375 61.4173 45.1079 61.6899C44.9783 61.955 44.8106 62.1671 44.5819 62.3186C44.3609 62.4701 44.1017 62.5458 43.8044 62.5458ZM43.7739 64C43.5681 64 43.3776 63.9773 43.2022 63.9318C43.0269 63.8864 42.8821 63.841 42.7601 63.7879C42.6382 63.7349 42.5619 63.697 42.5086 63.6743L42.661 63.3335C42.7144 63.3638 42.7982 63.4017 42.9126 63.4547C43.0269 63.5001 43.1565 63.5456 43.3013 63.5759C43.4538 63.6062 43.6062 63.6289 43.7663 63.6289C44.0026 63.6289 44.2161 63.5834 44.4066 63.485C44.5972 63.3865 44.742 63.235 44.8487 63.0305C44.9555 62.826 45.0088 62.5609 45.0088 62.2353V59.1299H45.4204V62.2353C45.4204 62.6291 45.3442 62.9624 45.1994 63.2275C45.0469 63.4925 44.8487 63.6819 44.5972 63.8106C44.3456 63.9394 44.0636 64 43.7663 64H43.7739ZM43.8883 62.1898C44.1093 62.1898 44.2999 62.1292 44.4752 62.008C44.6429 61.8869 44.7801 61.7202 44.8716 61.5082C44.9707 61.2961 45.0164 61.0537 45.0164 60.7811C45.0164 60.5084 44.9707 60.2736 44.8716 60.0691C44.7725 59.8646 44.6429 59.698 44.4752 59.5768C44.3075 59.4556 44.1093 59.395 43.8807 59.395C43.6444 59.395 43.4309 59.4556 43.248 59.5768C43.065 59.698 42.9202 59.857 42.8211 60.0691C42.7144 60.2736 42.6686 60.516 42.6686 60.7811C42.6686 61.0462 42.722 61.2961 42.8287 61.5082C42.9354 61.7202 43.0803 61.8869 43.2632 62.008C43.4462 62.1292 43.6596 62.1898 43.8959 62.1898H43.8883Z" fill="white"/>
<path d="M47.1203 58.2362C47.0441 58.2362 46.9831 58.2059 46.9297 58.1529C46.8764 58.0999 46.8459 58.0317 46.8459 57.9636C46.8459 57.8878 46.8764 57.8196 46.9297 57.7666C46.9831 57.7136 47.0517 57.6909 47.1203 57.6909C47.1965 57.6909 47.2651 57.7212 47.3185 57.7666C47.3718 57.8121 47.3947 57.8878 47.3947 57.9636C47.3947 58.0393 47.3718 58.0999 47.3185 58.1529C47.2651 58.2059 47.1965 58.2362 47.1203 58.2362ZM46.9069 62.5458L46.9221 59.1224H47.3337L47.3185 62.5458H46.9069Z" fill="white"/>
<path d="M48.4238 59.5011V59.1224H50.5429V59.5011H48.4238ZM50.0474 62.6291C49.7272 62.6291 49.4833 62.5458 49.3004 62.3792C49.1174 62.2125 49.0336 61.9778 49.0336 61.6672V58.0544H49.4452V61.6672C49.4452 61.849 49.4986 61.9929 49.6053 62.0989C49.712 62.205 49.8568 62.2504 50.0474 62.2504C50.1008 62.2504 50.1541 62.2428 50.2075 62.2277C50.2608 62.2125 50.3371 62.1671 50.4362 62.0989L50.6115 62.4549C50.4895 62.5307 50.3828 62.5761 50.299 62.5912C50.2151 62.614 50.1313 62.6215 50.0474 62.6215V62.6291Z" fill="white"/>
<path d="M52.8373 62.6291C52.4333 62.6291 52.1208 62.5382 51.8921 62.3489C51.6634 62.1671 51.5491 61.9096 51.5491 61.5763C51.5491 61.2431 51.6634 60.978 51.8921 60.7886C52.1208 60.5993 52.4333 60.5084 52.8373 60.5084H53.874V60.8871H52.8983C52.5705 60.8871 52.3266 60.9477 52.1817 61.0689C52.0369 61.1901 51.9683 61.3567 51.9683 61.5763C51.9683 61.796 52.0445 61.9475 52.1894 62.0686C52.3418 62.1898 52.5476 62.2504 52.8144 62.2504C53.0355 62.2504 53.2261 62.205 53.3861 62.1065C53.5462 62.008 53.6682 61.8717 53.7444 61.6975C53.8282 61.5233 53.8664 61.3188 53.8664 61.084H54.2399C54.2399 61.546 54.1179 61.9247 53.874 62.205C53.6301 62.4852 53.287 62.6291 52.8449 62.6291H52.8373ZM53.8969 62.5458L53.8664 62.0308V60.7129C53.8664 60.4175 53.8359 60.1827 53.7673 59.9934C53.6987 59.804 53.5996 59.6601 53.4547 59.5692C53.3099 59.4783 53.1346 59.4253 52.9059 59.4253C52.6772 59.4253 52.4943 59.4708 52.3342 59.5541C52.1741 59.645 52.0445 59.7737 51.9531 59.9479L51.5796 59.7813C51.6786 59.6147 51.793 59.4783 51.9302 59.3723C52.0674 59.2663 52.2046 59.183 52.3723 59.1299C52.54 59.0769 52.7153 59.0542 52.9059 59.0542C53.2108 59.0542 53.47 59.1148 53.6682 59.236C53.8664 59.3572 54.0188 59.5465 54.1255 59.7889C54.2246 60.0388 54.278 60.3493 54.278 60.7205V62.5534H53.8969V62.5458Z" fill="white"/>
<path d="M55.612 62.5458V57.7515H56.0236V62.5458H55.612Z" fill="white"/>
<path d="M61.085 62.6291C60.7573 62.6291 60.46 62.5534 60.2084 62.4019C59.9569 62.2504 59.7511 62.0383 59.6062 61.7657C59.4614 61.493 59.3852 61.1901 59.3852 60.8341C59.3852 60.4781 59.4538 60.1751 59.5986 59.9025C59.7434 59.6298 59.9416 59.4253 60.1932 59.2663C60.4447 59.1148 60.7344 59.0391 61.0622 59.0391C61.3899 59.0391 61.6796 59.1072 61.9312 59.2511C62.1827 59.395 62.3809 59.5919 62.5181 59.8495L62.1598 60.0388C62.0531 59.8419 61.9083 59.6904 61.7177 59.5768C61.5271 59.4632 61.3137 59.4102 61.0698 59.4102C60.8259 59.4102 60.6048 59.4708 60.4142 59.592C60.2237 59.7131 60.0712 59.8798 59.9645 60.0918C59.8578 60.3039 59.8044 60.5463 59.8044 60.8265C59.8044 61.1067 59.8578 61.3491 59.9721 61.5612C60.0865 61.7733 60.2313 61.9399 60.4295 62.0611C60.6201 62.1823 60.8411 62.2428 61.0927 62.2428C61.3442 62.2428 61.5576 62.1823 61.7558 62.0535C61.9464 61.9247 62.0989 61.7505 62.1979 61.5309L62.5638 61.7202C62.4266 62.0005 62.2284 62.2201 61.9769 62.3792C61.7253 62.5382 61.4281 62.6215 61.1003 62.6215L61.085 62.6291Z" fill="white"/>
<path d="M65.2165 62.6291C64.8887 62.6291 64.5915 62.5534 64.3399 62.4019C64.0884 62.2504 63.8826 62.0383 63.7377 61.7657C63.5929 61.493 63.5167 61.1901 63.5167 60.8341C63.5167 60.4781 63.5853 60.1751 63.7301 59.9025C63.8749 59.6298 64.0731 59.4253 64.3247 59.2663C64.5762 59.1148 64.8659 59.0391 65.1937 59.0391C65.5214 59.0391 65.8187 59.1148 66.0703 59.2663C66.3218 59.4178 66.52 59.6298 66.6648 59.9025C66.8097 60.1751 66.8783 60.4781 66.8783 60.8341C66.8783 61.1901 66.8097 61.493 66.6648 61.7657C66.52 62.0383 66.3218 62.2428 66.0703 62.4019C65.8187 62.5609 65.5291 62.6291 65.2013 62.6291H65.2165ZM65.2165 62.2504C65.4681 62.2504 65.6815 62.1898 65.8721 62.0686C66.0626 61.9475 66.2075 61.7808 66.3142 61.5688C66.4209 61.3567 66.4743 61.1143 66.4743 60.8341C66.4743 60.5538 66.4209 60.3115 66.3142 60.0994C66.2075 59.8873 66.055 59.7207 65.8644 59.5995C65.6739 59.4783 65.4528 59.4178 65.2013 59.4178C64.9497 59.4178 64.7363 59.4783 64.5457 59.5995C64.3552 59.7207 64.2027 59.8873 64.096 60.0994C63.9893 60.3115 63.9359 60.5538 63.9359 60.8341C63.9359 61.1143 63.9893 61.3567 64.1036 61.5688C64.218 61.7808 64.3628 61.9475 64.561 62.0686C64.7515 62.1898 64.9726 62.2504 65.2242 62.2504H65.2165Z" fill="white"/>
<path d="M68.1284 62.5458V59.1224H68.5171L68.5476 59.751V62.5458H68.1284ZM70.5981 60.7962C70.5981 60.4175 70.5524 60.1297 70.4609 59.9328C70.3695 59.7359 70.2475 59.5995 70.095 59.5314C69.9426 59.4632 69.7673 59.4253 69.5767 59.4253C69.2489 59.4253 68.9974 59.5465 68.8144 59.7813C68.6315 60.0237 68.54 60.3569 68.54 60.7811H68.2885C68.2885 60.4175 68.3418 60.0994 68.4409 59.8419C68.5476 59.5844 68.7001 59.3799 68.9059 59.2436C69.1117 59.1072 69.3556 59.0315 69.6529 59.0315C70.0645 59.0315 70.3999 59.1602 70.6515 59.4178C70.903 59.6753 71.025 60.0615 71.0174 60.5841L70.6058 60.7886L70.5981 60.7962ZM70.5981 62.5458V60.7962L71.0098 60.5917V62.5458H70.5981ZM73.0755 60.7962C73.0755 60.4175 73.0298 60.1297 72.9383 59.9328C72.8468 59.7359 72.7249 59.5995 72.5724 59.5314C72.42 59.4632 72.2446 59.4253 72.0541 59.4253C71.7263 59.4253 71.4747 59.5465 71.2918 59.7813C71.1089 60.0161 71.0174 60.3569 71.0174 60.7811H70.7658C70.7658 60.4175 70.8192 60.0994 70.9183 59.8419C71.0174 59.5844 71.1775 59.3799 71.3833 59.2436C71.5891 59.1072 71.833 59.0315 72.1303 59.0315C72.5419 59.0315 72.8773 59.1602 73.1289 59.4178C73.3804 59.6753 73.5024 60.0615 73.4948 60.5841L73.0831 60.7886L73.0755 60.7962ZM73.0755 62.5458V60.7962L73.4871 60.5917V62.5458H73.0755Z" fill="white"/>
<path d="M74.8287 62.5458V59.1224H75.2175L75.248 59.751V62.5458H74.8287ZM77.2985 60.7962C77.2985 60.4175 77.2527 60.1297 77.1613 59.9328C77.0698 59.7359 76.9478 59.5995 76.7954 59.5314C76.6429 59.4632 76.4676 59.4253 76.277 59.4253C75.9493 59.4253 75.6977 59.5465 75.5148 59.7813C75.3318 60.0237 75.2403 60.3569 75.2403 60.7811H74.9888C74.9888 60.4175 75.0422 60.0994 75.1413 59.8419C75.248 59.5844 75.4004 59.3799 75.6062 59.2436C75.812 59.1072 76.056 59.0315 76.3533 59.0315C76.7649 59.0315 77.1003 59.1602 77.3518 59.4178C77.6034 59.6753 77.7253 60.0615 77.7177 60.5841L77.3061 60.7886L77.2985 60.7962ZM77.2985 62.5458V60.7962L77.7101 60.5917V62.5458H77.2985ZM79.7758 60.7962C79.7758 60.4175 79.7301 60.1297 79.6386 59.9328C79.5472 59.7359 79.4252 59.5995 79.2727 59.5314C79.1203 59.4632 78.945 59.4253 78.7544 59.4253C78.4266 59.4253 78.1751 59.5465 77.9921 59.7813C77.8092 60.0161 77.7177 60.3569 77.7177 60.7811H77.4662C77.4662 60.4175 77.5195 60.0994 77.6186 59.8419C77.7177 59.5844 77.8778 59.3799 78.0836 59.2436C78.2894 59.1072 78.5333 59.0315 78.8306 59.0315C79.2422 59.0315 79.5776 59.1602 79.8292 59.4178C80.0807 59.6753 80.2027 60.0615 80.1951 60.5841L79.7835 60.7886L79.7758 60.7962ZM79.7758 62.5458V60.7962L80.1875 60.5917V62.5458H79.7758Z" fill="white"/>
<path d="M83.0231 62.6291C82.6953 62.6291 82.398 62.5534 82.1465 62.4019C81.8949 62.2504 81.6891 62.0383 81.5443 61.7657C81.3995 61.493 81.3232 61.1901 81.3232 60.8341C81.3232 60.4781 81.3918 60.1751 81.5367 59.9025C81.6815 59.6298 81.8721 59.4253 82.1236 59.2663C82.3752 59.1148 82.6572 59.0391 82.9774 59.0391C83.2975 59.0391 83.5796 59.1148 83.8082 59.2738C84.0369 59.4329 84.2122 59.645 84.3266 59.9252C84.4485 60.1979 84.5019 60.5235 84.5019 60.8795H84.0903C84.0903 60.5917 84.0522 60.3418 83.9683 60.1221C83.8845 59.9025 83.7625 59.7283 83.5948 59.6071C83.4271 59.4783 83.2213 59.4178 82.9774 59.4178C82.7334 59.4178 82.52 59.4783 82.3294 59.5995C82.1389 59.7207 81.994 59.8873 81.8873 60.0994C81.7806 60.3115 81.7272 60.5538 81.7272 60.8341C81.7272 61.1143 81.7806 61.3567 81.8949 61.5688C82.0093 61.7808 82.1541 61.9475 82.3523 62.0686C82.5429 62.1898 82.7639 62.2504 83.0155 62.2504C83.2823 62.2504 83.5109 62.1823 83.6939 62.0535C83.8768 61.9247 84.0217 61.7581 84.1284 61.5536L84.4714 61.7657C84.3876 61.9323 84.2732 62.0838 84.1284 62.2125C83.9836 62.3413 83.8235 62.4473 83.6329 62.5155C83.4423 62.5837 83.2365 62.6215 83.0079 62.6215L83.0231 62.6291ZM81.6129 60.8871V60.5084H84.2199V60.8871H81.6129Z" fill="white"/>
<path d="M85.691 62.5458V59.1224H86.1027V62.5458H85.691ZM85.8664 60.6675C85.8664 60.2963 85.935 60.0009 86.0798 59.7737C86.217 59.5465 86.3999 59.3799 86.621 59.2738C86.8421 59.1678 87.0784 59.1148 87.3299 59.1148V59.4935C87.1317 59.4935 86.9335 59.5314 86.7506 59.5995C86.5676 59.6677 86.4152 59.7889 86.2932 59.9555C86.1713 60.1221 86.1103 60.3493 86.1103 60.6372L85.8664 60.675V60.6675Z" fill="white"/>
<path d="M89.8073 62.6291C89.4795 62.6291 89.1822 62.5534 88.9307 62.4019C88.6791 62.2504 88.4733 62.0383 88.3285 61.7657C88.1836 61.493 88.1074 61.1901 88.1074 60.8341C88.1074 60.4781 88.176 60.1751 88.3209 59.9025C88.4657 59.6298 88.6639 59.4253 88.9154 59.2663C89.167 59.1148 89.4566 59.0391 89.7844 59.0391C90.1122 59.0391 90.4018 59.1072 90.6534 59.2511C90.9049 59.395 91.1031 59.5919 91.2403 59.8495L90.8821 60.0388C90.7754 59.8419 90.6305 59.6904 90.44 59.5768C90.2494 59.4632 90.036 59.4102 89.792 59.4102C89.5481 59.4102 89.327 59.4708 89.1365 59.592C88.9459 59.7131 88.7935 59.8798 88.6867 60.0918C88.58 60.3039 88.5267 60.5463 88.5267 60.8265C88.5267 61.1067 88.58 61.3491 88.6944 61.5612C88.8087 61.7733 88.9535 61.9399 89.1517 62.0611C89.3423 62.1823 89.5634 62.2428 89.8149 62.2428C90.0665 62.2428 90.2799 62.1823 90.4781 62.0535C90.6686 61.9247 90.8211 61.7505 90.9202 61.5309L91.2861 61.7202C91.1489 62.0005 90.9507 62.2201 90.6991 62.3792C90.4476 62.5382 90.1503 62.6215 89.8225 62.6215L89.8073 62.6291Z" fill="white"/>
<path d="M93.9311 62.6291C93.6034 62.6291 93.3061 62.5534 93.0545 62.4019C92.803 62.2504 92.5972 62.0383 92.4524 61.7657C92.3075 61.493 92.2313 61.1901 92.2313 60.8341C92.2313 60.4781 92.2999 60.1751 92.4447 59.9025C92.5896 59.6298 92.7801 59.4253 93.0317 59.2663C93.2832 59.1148 93.5653 59.0391 93.8854 59.0391C94.2056 59.0391 94.4876 59.1148 94.7163 59.2738C94.945 59.4329 95.1203 59.645 95.2346 59.9252C95.3566 60.1979 95.41 60.5235 95.41 60.8795H94.9983C94.9983 60.5917 94.9602 60.3418 94.8764 60.1221C94.7925 59.9025 94.6705 59.7283 94.5028 59.6071C94.3352 59.4783 94.1293 59.4178 93.8854 59.4178C93.6415 59.4178 93.4281 59.4783 93.2375 59.5995C93.0469 59.7207 92.9021 59.8873 92.7954 60.0994C92.6887 60.3115 92.6353 60.5538 92.6353 60.8341C92.6353 61.1143 92.6887 61.3567 92.803 61.5688C92.9173 61.7808 93.0622 61.9475 93.2604 62.0686C93.4509 62.1898 93.672 62.2504 93.9235 62.2504C94.1903 62.2504 94.419 62.1823 94.6019 62.0535C94.7849 61.9247 94.9297 61.7581 95.0364 61.5536L95.3795 61.7657C95.2956 61.9323 95.1813 62.0838 95.0364 62.2125C94.8916 62.3413 94.7315 62.4473 94.541 62.5155C94.3504 62.5837 94.1446 62.6215 93.9159 62.6215L93.9311 62.6291ZM92.521 60.8871V60.5084H95.1279V60.8871H92.521Z" fill="white"/>
<path d="M10.5238 51.5484C6.6515 51.5484 2.75631 50.9501 0.759171 50.4578L1.55955 47.4282C3.78537 47.8978 7.52811 48.4204 11.3699 48.4204C14.3199 48.4204 15.1889 48.2689 15.1889 47.5796C15.1889 46.8374 14.4876 46.7389 12.5667 46.6102L6.34659 46.2618C2.0474 46.0421 0.5 44.8757 0.5 42.1188C0.5 38.8923 3.84635 38.1728 9.99023 38.1728C12.9402 38.1728 16.8049 38.6727 18.7792 38.9908L18.0779 42.0431C15.4557 41.5735 12.056 41.2251 8.88494 41.2251C5.71391 41.2251 4.89066 41.3766 4.89066 42.0658C4.89066 42.755 5.53859 42.8611 6.84207 42.9368L13.0622 43.3079C17.3309 43.5579 19.5796 44.5728 19.5796 47.6024C19.5796 50.632 16.7592 51.5484 10.5162 51.5484H10.5238Z" fill="white"/>
<path d="M31.1965 38.1804C38.7125 38.1804 42.3561 40.2405 42.3561 44.853C42.3561 49.4656 38.7125 51.5257 31.1965 51.5257C23.6806 51.5257 20.0369 49.4656 20.0369 44.853C20.0369 40.2405 23.6577 38.1804 31.1965 38.1804ZM31.1965 47.5872C36.2885 47.5872 37.6377 46.8147 37.6377 44.8606C37.6377 42.9065 36.2885 42.134 31.1965 42.134C26.1046 42.134 24.7554 42.9065 24.7554 44.8606C24.7554 46.8147 26.1046 47.5872 31.1965 47.5872Z" fill="white"/>
<path d="M53.8969 38.2258C57.0908 38.2258 60.2618 38.6499 62.5867 39.1953L61.6339 42.9444C59.7892 42.5733 57.167 42.1718 53.1956 42.1718C49.2242 42.1718 47.7987 42.7702 47.7987 44.853C47.7987 46.9359 49.2242 47.5342 53.1956 47.5342C57.167 47.5342 59.7892 47.1404 61.6339 46.7617L62.5867 50.5108C60.2618 51.0561 57.167 51.4802 53.8969 51.4802C46.3047 51.4802 43.0879 49.4428 43.0879 44.853C43.0879 40.2632 46.3123 38.2258 53.8969 38.2258Z" fill="white"/>
<path d="M68.5324 36.9382H63.814V33.0679H68.5324V36.9382ZM63.814 38.5515H68.5324V51.2076H63.814V38.5515Z" fill="white"/>
<path d="M90.2342 39.1423H90.257V51.2H86.1103L85.7596 49.511C83.2594 50.5789 80.3171 51.4424 77.268 51.4424C72.7477 51.4424 69.7292 49.7079 69.7292 44.9893C69.7292 39.8996 73.6472 38.294 79.3718 38.294C83.7701 38.294 87.4366 38.7408 90.257 39.112L90.2342 39.1347V39.1423ZM78.1979 47.5796C80.3704 47.5796 82.8707 47.1101 85.5386 46.3375V42.3915C83.4424 42.1946 80.9955 42.0658 78.8992 42.0658C75.9493 42.0658 74.4552 42.8383 74.4552 44.8227C74.4552 46.8071 75.4767 47.5796 78.1979 47.5796Z" fill="white"/>
<path d="M96.5 51.2076H91.7816V32.5983H96.5V51.2076Z" fill="white"/>
<path d="M40.8468 20.2982V21.7827C40.8468 23.1309 42.4247 23.8807 43.4767 23.0324L49.59 18.1093L55.7034 23.0324C56.763 23.8807 58.3333 23.1385 58.3333 21.7827V20.2982L49.59 13.2544L40.8468 20.2982Z" fill="white"/>
<path d="M62.1217 9.36142L51.1984 0.568047C50.2608 -0.189349 48.9192 -0.189349 47.9817 0.568047L37.0584 9.36899C36.5476 9.77799 36.2504 10.3991 36.2504 11.058V18.8667C36.2504 20.9269 38.6515 22.0705 40.2675 20.7678L40.8545 20.2982V16.6627C40.8545 16.231 41.0526 15.8296 41.388 15.5569L48.5457 9.79314C49.1632 9.30083 50.0398 9.30083 50.6572 9.79314L57.8149 15.5569C58.1503 15.8296 58.3485 16.231 58.3485 16.6627V20.2982L58.9354 20.7678C60.5438 22.063 62.9526 20.9269 62.9526 18.8667V11.058C62.9526 10.4066 62.6553 9.78556 62.1446 9.36899" fill="white"/>
<path d="M0.629586 60.872V57.7591H1.0717V60.872H0.629586ZM2.43616 62.6594C2.08552 62.6594 1.77299 62.5837 1.50619 62.4322C1.23178 62.2807 1.01834 62.0686 0.865889 61.796C0.713435 61.5233 0.637208 61.2204 0.637208 60.872H1.07932C1.07932 61.1446 1.1403 61.3794 1.25465 61.5915C1.36899 61.8036 1.53668 61.9626 1.7425 62.0838C1.94831 62.205 2.19223 62.258 2.45903 62.258C2.72582 62.258 2.96975 62.1974 3.17556 62.0838C3.38137 61.9626 3.54907 61.8036 3.66341 61.5915C3.77775 61.3794 3.83873 61.1446 3.83873 60.872H4.28085C4.28085 61.2204 4.20462 61.5233 4.04454 61.796C3.88447 62.0686 3.67103 62.2731 3.39662 62.4322C3.1222 62.5837 2.80205 62.6594 2.44378 62.6594H2.43616ZM3.83111 60.872V57.7591H4.27323V60.872H3.83111Z" fill="white"/>
<path d="M5.82063 62.5458V59.1224H6.20939L6.23988 59.751V62.5458H5.82063ZM8.29038 60.7962C8.29038 60.4175 8.24464 60.1297 8.15317 59.9328C8.0617 59.7359 7.93973 59.5995 7.78728 59.5314C7.63483 59.4632 7.4595 59.4253 7.26894 59.4253C6.94116 59.4253 6.68961 59.5465 6.50667 59.7813C6.32373 60.0237 6.23225 60.3569 6.23225 60.7811H5.9807C5.9807 60.4175 6.03406 60.0994 6.13316 59.8419C6.23988 59.5844 6.39233 59.3799 6.59814 59.2436C6.80395 59.1072 7.04788 59.0315 7.34516 59.0315C7.75679 59.0315 8.09219 59.1602 8.34373 59.4178C8.59528 59.6753 8.71725 60.0615 8.70962 60.5841L8.298 60.7886L8.29038 60.7962ZM8.29038 62.5458V60.7962L8.702 60.5917V62.5458H8.29038Z" fill="white"/>
<path d="M10.0436 62.5458V57.7515H10.4552V62.5458H10.0436Z" fill="white"/>
<path d="M12.1475 58.2362C12.0712 58.2362 12.0102 58.2059 11.9569 58.1529C11.9035 58.0999 11.873 58.0317 11.873 57.9636C11.873 57.8878 11.9035 57.8196 11.9569 57.7666C12.0102 57.7136 12.0788 57.6909 12.1475 57.6909C12.2237 57.6909 12.2923 57.7212 12.3456 57.7666C12.399 57.8121 12.4219 57.8878 12.4219 57.9636C12.4219 58.0393 12.399 58.0999 12.3456 58.1529C12.2923 58.2059 12.2237 58.2362 12.1475 58.2362ZM11.934 62.5458L11.9493 59.1224H12.3609L12.3456 62.5458H11.934Z" fill="white"/>
<path d="M13.8321 62.5458V59.1224H14.2208L14.2513 59.751V62.5458H13.8321ZM16.3018 60.7962C16.3018 60.4175 16.2561 60.1297 16.1646 59.9328C16.0731 59.7359 15.9512 59.5995 15.7987 59.5314C15.6463 59.4632 15.4709 59.4253 15.2804 59.4253C14.9526 59.4253 14.701 59.5465 14.5181 59.7813C14.3352 60.0237 14.2437 60.3569 14.2437 60.7811H13.9921C13.9921 60.4175 14.0455 60.0994 14.1446 59.8419C14.2513 59.5844 14.4038 59.3799 14.6096 59.2436C14.8154 59.1072 15.0593 59.0315 15.3566 59.0315C15.7682 59.0315 16.1036 59.1602 16.3552 59.4178C16.6067 59.6753 16.7287 60.0615 16.7211 60.5841L16.3094 60.7886L16.3018 60.7962ZM16.3018 62.5458V60.7962L16.7134 60.5917V62.5458H16.3018ZM18.7792 60.7962C18.7792 60.4175 18.7334 60.1297 18.642 59.9328C18.5505 59.7359 18.4285 59.5995 18.2761 59.5314C18.1236 59.4632 17.9483 59.4253 17.7577 59.4253C17.43 59.4253 17.1784 59.5465 16.9955 59.7813C16.8125 60.0161 16.7211 60.3569 16.7211 60.7811H16.4695C16.4695 60.4175 16.5229 60.0994 16.622 59.8419C16.7211 59.5844 16.8811 59.3799 17.0869 59.2436C17.2928 59.1072 17.5367 59.0315 17.834 59.0315C18.2456 59.0315 18.581 59.1602 18.8325 59.4178C19.0841 59.6753 19.2061 60.0615 19.1984 60.5841L18.7868 60.7886L18.7792 60.7962ZM18.7792 62.5458V60.7962L19.1908 60.5917V62.5458H18.7792Z" fill="white"/>
<path d="M20.7763 58.2362C20.7001 58.2362 20.6391 58.2059 20.5858 58.1529C20.5324 58.0999 20.5019 58.0317 20.5019 57.9636C20.5019 57.8878 20.5324 57.8196 20.5858 57.7666C20.6391 57.7136 20.7077 57.6909 20.7763 57.6909C20.8525 57.6909 20.9212 57.7212 20.9745 57.7666C21.0279 57.8121 21.0507 57.8878 21.0507 57.9636C21.0507 58.0393 21.0279 58.0999 20.9745 58.1529C20.9212 58.2059 20.8525 58.2362 20.7763 58.2362ZM20.5629 62.5458L20.5781 59.1224H20.9898L20.9745 62.5458H20.5629Z" fill="white"/>
<path d="M22.0798 59.5011V59.1224H24.1989V59.5011H22.0798ZM23.7034 62.6291C23.3833 62.6291 23.1394 62.5458 22.9564 62.3792C22.7735 62.2125 22.6896 61.9778 22.6896 61.6672V58.0544H23.1012V61.6672C23.1012 61.849 23.1546 61.9929 23.2613 62.0989C23.368 62.205 23.5129 62.2504 23.7034 62.2504C23.7568 62.2504 23.8101 62.2428 23.8635 62.2277C23.9169 62.2125 23.9931 62.1671 24.0922 62.0989L24.2675 62.4549C24.1455 62.5307 24.0388 62.5761 23.955 62.5912C23.8711 62.614 23.7873 62.6215 23.7034 62.6215V62.6291Z" fill="white"/>
<path d="M26.8973 62.6291C26.5696 62.6291 26.2723 62.5534 26.0207 62.4019C25.7692 62.2504 25.5634 62.0383 25.4185 61.7657C25.2737 61.493 25.1975 61.1901 25.1975 60.8341C25.1975 60.4781 25.2661 60.1751 25.4109 59.9025C25.5557 59.6298 25.7463 59.4253 25.9979 59.2663C26.2494 59.1148 26.5314 59.0391 26.8516 59.0391C27.1717 59.0391 27.4538 59.1148 27.6825 59.2738C27.9111 59.4329 28.0865 59.645 28.2008 59.9252C28.3228 60.1979 28.3761 60.5235 28.3761 60.8795H27.9645C27.9645 60.5917 27.9264 60.3418 27.8425 60.1221C27.7587 59.9025 27.6367 59.7283 27.469 59.6071C27.3013 59.4783 27.0955 59.4178 26.8516 59.4178C26.6077 59.4178 26.3942 59.4783 26.2037 59.5995C26.0131 59.7207 25.8683 59.8873 25.7616 60.0994C25.6548 60.3115 25.6015 60.5538 25.6015 60.8341C25.6015 61.1143 25.6548 61.3567 25.7692 61.5688C25.8835 61.7808 26.0283 61.9475 26.2265 62.0686C26.4171 62.1898 26.6382 62.2504 26.8897 62.2504C27.1565 62.2504 27.3852 62.1823 27.5681 62.0535C27.7511 61.9247 27.8959 61.7581 28.0026 61.5536L28.3456 61.7657C28.2618 61.9323 28.1474 62.0838 28.0026 62.2125C27.8578 62.3413 27.6977 62.4473 27.5071 62.5155C27.3166 62.5837 27.1108 62.6215 26.8821 62.6215L26.8973 62.6291ZM25.4871 60.8871V60.5084H28.0941V60.8871H25.4871Z" fill="white"/>
<path d="M30.9069 62.6291C30.602 62.6291 30.3352 62.5534 30.0989 62.4019C29.8626 62.2504 29.6796 62.0383 29.55 61.7657C29.4204 61.493 29.3518 61.1825 29.3518 60.8417C29.3518 60.5008 29.4204 60.1827 29.55 59.9101C29.6796 59.6374 29.8702 59.4329 30.0989 59.2738C30.3352 59.1224 30.602 59.0466 30.9069 59.0466C31.2118 59.0466 31.4557 59.1224 31.6844 59.2738C31.9054 59.4253 32.0807 59.6374 32.2103 59.9101C32.3399 60.1827 32.4009 60.4857 32.4009 60.8417C32.4009 61.1976 32.3399 61.5006 32.2103 61.7657C32.0807 62.0383 31.9131 62.2504 31.6844 62.4019C31.4557 62.5534 31.2041 62.6291 30.9069 62.6291ZM30.9907 62.258C31.2118 62.258 31.4023 62.1974 31.5777 62.0762C31.7453 61.955 31.8826 61.7884 31.974 61.5763C32.0731 61.3643 32.1189 61.1143 32.1189 60.8341C32.1189 60.5538 32.0731 60.3115 31.974 60.0918C31.8749 59.8798 31.7453 59.7131 31.5777 59.592C31.41 59.4708 31.2118 59.4102 30.9831 59.4102C30.7468 59.4102 30.5333 59.4708 30.3504 59.592C30.1675 59.7131 30.0226 59.8798 29.9235 60.0918C29.8244 60.3039 29.7711 60.5538 29.7711 60.8341C29.7711 61.1143 29.8244 61.3567 29.9312 61.5763C30.0379 61.7884 30.1827 61.955 30.3656 62.0762C30.5486 62.1974 30.762 62.258 30.9983 62.258H30.9907ZM32.1417 62.5458L32.1189 61.9096V57.7515H32.5305V62.5458H32.1417Z" fill="white"/>
<path d="M37.4547 62.6291C37.1498 62.6291 36.883 62.5534 36.6467 62.4019C36.4104 62.2504 36.2275 62.0383 36.0979 61.7657C35.9683 61.493 35.8997 61.1825 35.8997 60.8417C35.8997 60.5008 35.9683 60.1827 36.0979 59.9101C36.2275 59.6374 36.4181 59.4329 36.6467 59.2738C36.883 59.1224 37.1498 59.0466 37.4547 59.0466C37.7596 59.0466 38.0036 59.1224 38.2323 59.2738C38.4533 59.4253 38.6286 59.6374 38.7582 59.9101C38.8878 60.1827 38.9488 60.4857 38.9488 60.8417C38.9488 61.1976 38.8878 61.5006 38.7582 61.7657C38.6286 62.0383 38.4609 62.2504 38.2323 62.4019C38.0036 62.5534 37.752 62.6291 37.4547 62.6291ZM37.5386 62.258C37.7596 62.258 37.9502 62.1974 38.1255 62.0762C38.2932 61.955 38.4304 61.7884 38.5219 61.5763C38.621 61.3643 38.6667 61.1143 38.6667 60.8341C38.6667 60.5538 38.621 60.3115 38.5219 60.0918C38.4228 59.8798 38.2932 59.7131 38.1255 59.592C37.9578 59.4708 37.7596 59.4102 37.531 59.4102C37.2947 59.4102 37.0812 59.4708 36.8983 59.592C36.7153 59.7131 36.5705 59.8798 36.4714 60.0918C36.3723 60.3039 36.319 60.5538 36.319 60.8341C36.319 61.1143 36.3723 61.3567 36.479 61.5763C36.5858 61.7884 36.7306 61.955 36.9135 62.0762C37.0965 62.1974 37.3099 62.258 37.5462 62.258H37.5386ZM38.6896 62.5458L38.6667 61.9096V57.7515H39.0784V62.5458H38.6896Z" fill="white"/>
<path d="M40.7706 58.2362C40.6944 58.2362 40.6334 58.2059 40.58 58.1529C40.5267 58.0999 40.4962 58.0317 40.4962 57.9636C40.4962 57.8878 40.5267 57.8196 40.58 57.7666C40.6334 57.7136 40.702 57.6909 40.7706 57.6909C40.8468 57.6909 40.9154 57.7212 40.9688 57.7666C41.0222 57.8121 41.045 57.8878 41.045 57.9636C41.045 58.0393 41.0222 58.0999 40.9688 58.1529C40.9154 58.2059 40.8468 58.2362 40.7706 58.2362ZM40.5572 62.5458L40.5724 59.1224H40.984L40.9688 62.5458H40.5572Z" fill="white"/>
<path d="M43.8044 62.5458C43.4995 62.5458 43.2327 62.4701 42.9964 62.3186C42.7601 62.1671 42.5772 61.9626 42.4476 61.6899C42.318 61.4173 42.2494 61.1219 42.2494 60.7735C42.2494 60.4251 42.318 60.1297 42.4476 59.8722C42.5772 59.6147 42.7677 59.4102 42.9964 59.2587C43.2327 59.1072 43.4995 59.0391 43.8044 59.0391C44.1093 59.0391 44.3533 59.1148 44.5819 59.2587C44.803 59.4102 44.9783 59.6147 45.1079 59.8722C45.2375 60.1297 45.2985 60.4327 45.2985 60.7735C45.2985 61.1143 45.2375 61.4173 45.1079 61.6899C44.9783 61.955 44.8106 62.1671 44.5819 62.3186C44.3609 62.4701 44.1017 62.5458 43.8044 62.5458ZM43.7739 64C43.5681 64 43.3776 63.9773 43.2022 63.9318C43.0269 63.8864 42.8821 63.841 42.7601 63.7879C42.6382 63.7349 42.5619 63.697 42.5086 63.6743L42.661 63.3335C42.7144 63.3638 42.7982 63.4017 42.9126 63.4547C43.0269 63.5001 43.1565 63.5456 43.3013 63.5759C43.4538 63.6062 43.6062 63.6289 43.7663 63.6289C44.0026 63.6289 44.2161 63.5834 44.4066 63.485C44.5972 63.3865 44.742 63.235 44.8487 63.0305C44.9555 62.826 45.0088 62.5609 45.0088 62.2353V59.1299H45.4204V62.2353C45.4204 62.6291 45.3442 62.9624 45.1994 63.2275C45.0469 63.4925 44.8487 63.6819 44.5972 63.8106C44.3456 63.9394 44.0636 64 43.7663 64H43.7739ZM43.8883 62.1898C44.1093 62.1898 44.2999 62.1292 44.4752 62.008C44.6429 61.8869 44.7801 61.7202 44.8716 61.5082C44.9707 61.2961 45.0164 61.0537 45.0164 60.7811C45.0164 60.5084 44.9707 60.2736 44.8716 60.0691C44.7725 59.8646 44.6429 59.698 44.4752 59.5768C44.3075 59.4556 44.1093 59.395 43.8807 59.395C43.6444 59.395 43.4309 59.4556 43.248 59.5768C43.065 59.698 42.9202 59.857 42.8211 60.0691C42.7144 60.2736 42.6686 60.516 42.6686 60.7811C42.6686 61.0462 42.722 61.2961 42.8287 61.5082C42.9354 61.7202 43.0803 61.8869 43.2632 62.008C43.4462 62.1292 43.6596 62.1898 43.8959 62.1898H43.8883Z" fill="white"/>
<path d="M47.1203 58.2362C47.0441 58.2362 46.9831 58.2059 46.9297 58.1529C46.8764 58.0999 46.8459 58.0317 46.8459 57.9636C46.8459 57.8878 46.8764 57.8196 46.9297 57.7666C46.9831 57.7136 47.0517 57.6909 47.1203 57.6909C47.1965 57.6909 47.2651 57.7212 47.3185 57.7666C47.3718 57.8121 47.3947 57.8878 47.3947 57.9636C47.3947 58.0393 47.3718 58.0999 47.3185 58.1529C47.2651 58.2059 47.1965 58.2362 47.1203 58.2362ZM46.9069 62.5458L46.9221 59.1224H47.3337L47.3185 62.5458H46.9069Z" fill="white"/>
<path d="M48.4238 59.5011V59.1224H50.5429V59.5011H48.4238ZM50.0474 62.6291C49.7272 62.6291 49.4833 62.5458 49.3004 62.3792C49.1174 62.2125 49.0336 61.9778 49.0336 61.6672V58.0544H49.4452V61.6672C49.4452 61.849 49.4986 61.9929 49.6053 62.0989C49.712 62.205 49.8568 62.2504 50.0474 62.2504C50.1008 62.2504 50.1541 62.2428 50.2075 62.2277C50.2608 62.2125 50.3371 62.1671 50.4362 62.0989L50.6115 62.4549C50.4895 62.5307 50.3828 62.5761 50.299 62.5912C50.2151 62.614 50.1313 62.6215 50.0474 62.6215V62.6291Z" fill="white"/>
<path d="M52.8373 62.6291C52.4333 62.6291 52.1208 62.5382 51.8921 62.3489C51.6634 62.1671 51.5491 61.9096 51.5491 61.5763C51.5491 61.2431 51.6634 60.978 51.8921 60.7886C52.1208 60.5993 52.4333 60.5084 52.8373 60.5084H53.874V60.8871H52.8983C52.5705 60.8871 52.3266 60.9477 52.1817 61.0689C52.0369 61.1901 51.9683 61.3567 51.9683 61.5763C51.9683 61.796 52.0445 61.9475 52.1894 62.0686C52.3418 62.1898 52.5476 62.2504 52.8144 62.2504C53.0355 62.2504 53.2261 62.205 53.3861 62.1065C53.5462 62.008 53.6682 61.8717 53.7444 61.6975C53.8282 61.5233 53.8664 61.3188 53.8664 61.084H54.2399C54.2399 61.546 54.1179 61.9247 53.874 62.205C53.6301 62.4852 53.287 62.6291 52.8449 62.6291H52.8373ZM53.8969 62.5458L53.8664 62.0308V60.7129C53.8664 60.4175 53.8359 60.1827 53.7673 59.9934C53.6987 59.804 53.5996 59.6601 53.4547 59.5692C53.3099 59.4783 53.1346 59.4253 52.9059 59.4253C52.6772 59.4253 52.4943 59.4708 52.3342 59.5541C52.1741 59.645 52.0445 59.7737 51.9531 59.9479L51.5796 59.7813C51.6786 59.6147 51.793 59.4783 51.9302 59.3723C52.0674 59.2663 52.2046 59.183 52.3723 59.1299C52.54 59.0769 52.7153 59.0542 52.9059 59.0542C53.2108 59.0542 53.47 59.1148 53.6682 59.236C53.8664 59.3572 54.0188 59.5465 54.1255 59.7889C54.2246 60.0388 54.278 60.3493 54.278 60.7205V62.5534H53.8969V62.5458Z" fill="white"/>
<path d="M55.612 62.5458V57.7515H56.0236V62.5458H55.612Z" fill="white"/>
<path d="M61.085 62.6291C60.7573 62.6291 60.46 62.5534 60.2084 62.4019C59.9569 62.2504 59.7511 62.0383 59.6062 61.7657C59.4614 61.493 59.3852 61.1901 59.3852 60.8341C59.3852 60.4781 59.4538 60.1751 59.5986 59.9025C59.7434 59.6298 59.9416 59.4253 60.1932 59.2663C60.4447 59.1148 60.7344 59.0391 61.0622 59.0391C61.3899 59.0391 61.6796 59.1072 61.9312 59.2511C62.1827 59.395 62.3809 59.5919 62.5181 59.8495L62.1598 60.0388C62.0531 59.8419 61.9083 59.6904 61.7177 59.5768C61.5271 59.4632 61.3137 59.4102 61.0698 59.4102C60.8259 59.4102 60.6048 59.4708 60.4142 59.592C60.2237 59.7131 60.0712 59.8798 59.9645 60.0918C59.8578 60.3039 59.8044 60.5463 59.8044 60.8265C59.8044 61.1067 59.8578 61.3491 59.9721 61.5612C60.0865 61.7733 60.2313 61.9399 60.4295 62.0611C60.6201 62.1823 60.8411 62.2428 61.0927 62.2428C61.3442 62.2428 61.5576 62.1823 61.7558 62.0535C61.9464 61.9247 62.0989 61.7505 62.1979 61.5309L62.5638 61.7202C62.4266 62.0005 62.2284 62.2201 61.9769 62.3792C61.7253 62.5382 61.4281 62.6215 61.1003 62.6215L61.085 62.6291Z" fill="white"/>
<path d="M65.2165 62.6291C64.8887 62.6291 64.5915 62.5534 64.3399 62.4019C64.0884 62.2504 63.8826 62.0383 63.7377 61.7657C63.5929 61.493 63.5167 61.1901 63.5167 60.8341C63.5167 60.4781 63.5853 60.1751 63.7301 59.9025C63.8749 59.6298 64.0731 59.4253 64.3247 59.2663C64.5762 59.1148 64.8659 59.0391 65.1937 59.0391C65.5214 59.0391 65.8187 59.1148 66.0703 59.2663C66.3218 59.4178 66.52 59.6298 66.6648 59.9025C66.8097 60.1751 66.8783 60.4781 66.8783 60.8341C66.8783 61.1901 66.8097 61.493 66.6648 61.7657C66.52 62.0383 66.3218 62.2428 66.0703 62.4019C65.8187 62.5609 65.5291 62.6291 65.2013 62.6291H65.2165ZM65.2165 62.2504C65.4681 62.2504 65.6815 62.1898 65.8721 62.0686C66.0626 61.9475 66.2075 61.7808 66.3142 61.5688C66.4209 61.3567 66.4743 61.1143 66.4743 60.8341C66.4743 60.5538 66.4209 60.3115 66.3142 60.0994C66.2075 59.8873 66.055 59.7207 65.8644 59.5995C65.6739 59.4783 65.4528 59.4178 65.2013 59.4178C64.9497 59.4178 64.7363 59.4783 64.5457 59.5995C64.3552 59.7207 64.2027 59.8873 64.096 60.0994C63.9893 60.3115 63.9359 60.5538 63.9359 60.8341C63.9359 61.1143 63.9893 61.3567 64.1036 61.5688C64.218 61.7808 64.3628 61.9475 64.561 62.0686C64.7515 62.1898 64.9726 62.2504 65.2242 62.2504H65.2165Z" fill="white"/>
<path d="M68.1284 62.5458V59.1224H68.5171L68.5476 59.751V62.5458H68.1284ZM70.5981 60.7962C70.5981 60.4175 70.5524 60.1297 70.4609 59.9328C70.3695 59.7359 70.2475 59.5995 70.095 59.5314C69.9426 59.4632 69.7673 59.4253 69.5767 59.4253C69.2489 59.4253 68.9974 59.5465 68.8144 59.7813C68.6315 60.0237 68.54 60.3569 68.54 60.7811H68.2885C68.2885 60.4175 68.3418 60.0994 68.4409 59.8419C68.5476 59.5844 68.7001 59.3799 68.9059 59.2436C69.1117 59.1072 69.3556 59.0315 69.6529 59.0315C70.0645 59.0315 70.3999 59.1602 70.6515 59.4178C70.903 59.6753 71.025 60.0615 71.0174 60.5841L70.6058 60.7886L70.5981 60.7962ZM70.5981 62.5458V60.7962L71.0098 60.5917V62.5458H70.5981ZM73.0755 60.7962C73.0755 60.4175 73.0298 60.1297 72.9383 59.9328C72.8468 59.7359 72.7249 59.5995 72.5724 59.5314C72.42 59.4632 72.2446 59.4253 72.0541 59.4253C71.7263 59.4253 71.4747 59.5465 71.2918 59.7813C71.1089 60.0161 71.0174 60.3569 71.0174 60.7811H70.7658C70.7658 60.4175 70.8192 60.0994 70.9183 59.8419C71.0174 59.5844 71.1775 59.3799 71.3833 59.2436C71.5891 59.1072 71.833 59.0315 72.1303 59.0315C72.5419 59.0315 72.8773 59.1602 73.1289 59.4178C73.3804 59.6753 73.5024 60.0615 73.4948 60.5841L73.0831 60.7886L73.0755 60.7962ZM73.0755 62.5458V60.7962L73.4871 60.5917V62.5458H73.0755Z" fill="white"/>
<path d="M74.8287 62.5458V59.1224H75.2175L75.248 59.751V62.5458H74.8287ZM77.2985 60.7962C77.2985 60.4175 77.2527 60.1297 77.1613 59.9328C77.0698 59.7359 76.9478 59.5995 76.7954 59.5314C76.6429 59.4632 76.4676 59.4253 76.277 59.4253C75.9493 59.4253 75.6977 59.5465 75.5148 59.7813C75.3318 60.0237 75.2403 60.3569 75.2403 60.7811H74.9888C74.9888 60.4175 75.0422 60.0994 75.1413 59.8419C75.248 59.5844 75.4004 59.3799 75.6062 59.2436C75.812 59.1072 76.056 59.0315 76.3533 59.0315C76.7649 59.0315 77.1003 59.1602 77.3518 59.4178C77.6034 59.6753 77.7253 60.0615 77.7177 60.5841L77.3061 60.7886L77.2985 60.7962ZM77.2985 62.5458V60.7962L77.7101 60.5917V62.5458H77.2985ZM79.7758 60.7962C79.7758 60.4175 79.7301 60.1297 79.6386 59.9328C79.5472 59.7359 79.4252 59.5995 79.2727 59.5314C79.1203 59.4632 78.945 59.4253 78.7544 59.4253C78.4266 59.4253 78.1751 59.5465 77.9921 59.7813C77.8092 60.0161 77.7177 60.3569 77.7177 60.7811H77.4662C77.4662 60.4175 77.5195 60.0994 77.6186 59.8419C77.7177 59.5844 77.8778 59.3799 78.0836 59.2436C78.2894 59.1072 78.5333 59.0315 78.8306 59.0315C79.2422 59.0315 79.5776 59.1602 79.8292 59.4178C80.0807 59.6753 80.2027 60.0615 80.1951 60.5841L79.7835 60.7886L79.7758 60.7962ZM79.7758 62.5458V60.7962L80.1875 60.5917V62.5458H79.7758Z" fill="white"/>
<path d="M83.0231 62.6291C82.6953 62.6291 82.398 62.5534 82.1465 62.4019C81.8949 62.2504 81.6891 62.0383 81.5443 61.7657C81.3995 61.493 81.3232 61.1901 81.3232 60.8341C81.3232 60.4781 81.3918 60.1751 81.5367 59.9025C81.6815 59.6298 81.8721 59.4253 82.1236 59.2663C82.3752 59.1148 82.6572 59.0391 82.9774 59.0391C83.2975 59.0391 83.5796 59.1148 83.8082 59.2738C84.0369 59.4329 84.2122 59.645 84.3266 59.9252C84.4485 60.1979 84.5019 60.5235 84.5019 60.8795H84.0903C84.0903 60.5917 84.0522 60.3418 83.9683 60.1221C83.8845 59.9025 83.7625 59.7283 83.5948 59.6071C83.4271 59.4783 83.2213 59.4178 82.9774 59.4178C82.7334 59.4178 82.52 59.4783 82.3294 59.5995C82.1389 59.7207 81.994 59.8873 81.8873 60.0994C81.7806 60.3115 81.7272 60.5538 81.7272 60.8341C81.7272 61.1143 81.7806 61.3567 81.8949 61.5688C82.0093 61.7808 82.1541 61.9475 82.3523 62.0686C82.5429 62.1898 82.7639 62.2504 83.0155 62.2504C83.2823 62.2504 83.5109 62.1823 83.6939 62.0535C83.8768 61.9247 84.0217 61.7581 84.1284 61.5536L84.4714 61.7657C84.3876 61.9323 84.2732 62.0838 84.1284 62.2125C83.9836 62.3413 83.8235 62.4473 83.6329 62.5155C83.4423 62.5837 83.2365 62.6215 83.0079 62.6215L83.0231 62.6291ZM81.6129 60.8871V60.5084H84.2199V60.8871H81.6129Z" fill="white"/>
<path d="M85.691 62.5458V59.1224H86.1027V62.5458H85.691ZM85.8664 60.6675C85.8664 60.2963 85.935 60.0009 86.0798 59.7737C86.217 59.5465 86.3999 59.3799 86.621 59.2738C86.8421 59.1678 87.0784 59.1148 87.3299 59.1148V59.4935C87.1317 59.4935 86.9335 59.5314 86.7506 59.5995C86.5676 59.6677 86.4152 59.7889 86.2932 59.9555C86.1713 60.1221 86.1103 60.3493 86.1103 60.6372L85.8664 60.675V60.6675Z" fill="white"/>
<path d="M89.8073 62.6291C89.4795 62.6291 89.1822 62.5534 88.9307 62.4019C88.6791 62.2504 88.4733 62.0383 88.3285 61.7657C88.1836 61.493 88.1074 61.1901 88.1074 60.8341C88.1074 60.4781 88.176 60.1751 88.3209 59.9025C88.4657 59.6298 88.6639 59.4253 88.9154 59.2663C89.167 59.1148 89.4566 59.0391 89.7844 59.0391C90.1122 59.0391 90.4018 59.1072 90.6534 59.2511C90.9049 59.395 91.1031 59.5919 91.2403 59.8495L90.8821 60.0388C90.7754 59.8419 90.6305 59.6904 90.44 59.5768C90.2494 59.4632 90.036 59.4102 89.792 59.4102C89.5481 59.4102 89.327 59.4708 89.1365 59.592C88.9459 59.7131 88.7935 59.8798 88.6867 60.0918C88.58 60.3039 88.5267 60.5463 88.5267 60.8265C88.5267 61.1067 88.58 61.3491 88.6944 61.5612C88.8087 61.7733 88.9535 61.9399 89.1517 62.0611C89.3423 62.1823 89.5634 62.2428 89.8149 62.2428C90.0665 62.2428 90.2799 62.1823 90.4781 62.0535C90.6686 61.9247 90.8211 61.7505 90.9202 61.5309L91.2861 61.7202C91.1489 62.0005 90.9507 62.2201 90.6991 62.3792C90.4476 62.5382 90.1503 62.6215 89.8225 62.6215L89.8073 62.6291Z" fill="white"/>
<path d="M93.9311 62.6291C93.6034 62.6291 93.3061 62.5534 93.0545 62.4019C92.803 62.2504 92.5972 62.0383 92.4524 61.7657C92.3075 61.493 92.2313 61.1901 92.2313 60.8341C92.2313 60.4781 92.2999 60.1751 92.4447 59.9025C92.5896 59.6298 92.7801 59.4253 93.0317 59.2663C93.2832 59.1148 93.5653 59.0391 93.8854 59.0391C94.2056 59.0391 94.4876 59.1148 94.7163 59.2738C94.945 59.4329 95.1203 59.645 95.2346 59.9252C95.3566 60.1979 95.41 60.5235 95.41 60.8795H94.9983C94.9983 60.5917 94.9602 60.3418 94.8764 60.1221C94.7925 59.9025 94.6705 59.7283 94.5028 59.6071C94.3352 59.4783 94.1293 59.4178 93.8854 59.4178C93.6415 59.4178 93.4281 59.4783 93.2375 59.5995C93.0469 59.7207 92.9021 59.8873 92.7954 60.0994C92.6887 60.3115 92.6353 60.5538 92.6353 60.8341C92.6353 61.1143 92.6887 61.3567 92.803 61.5688C92.9173 61.7808 93.0622 61.9475 93.2604 62.0686C93.4509 62.1898 93.672 62.2504 93.9235 62.2504C94.1903 62.2504 94.419 62.1823 94.6019 62.0535C94.7849 61.9247 94.9297 61.7581 95.0364 61.5536L95.3795 61.7657C95.2956 61.9323 95.1813 62.0838 95.0364 62.2125C94.8916 62.3413 94.7315 62.4473 94.541 62.5155C94.3504 62.5837 94.1446 62.6215 93.9159 62.6215L93.9311 62.6291ZM92.521 60.8871V60.5084H95.1279V60.8871H92.521Z" fill="white"/>
<path d="M10.5238 51.5484C6.6515 51.5484 2.75631 50.9501 0.759171 50.4578L1.55955 47.4282C3.78537 47.8978 7.52811 48.4204 11.3699 48.4204C14.3199 48.4204 15.1889 48.2689 15.1889 47.5796C15.1889 46.8374 14.4876 46.7389 12.5667 46.6102L6.34659 46.2618C2.0474 46.0421 0.5 44.8757 0.5 42.1188C0.5 38.8923 3.84635 38.1728 9.99023 38.1728C12.9402 38.1728 16.8049 38.6727 18.7792 38.9908L18.0779 42.0431C15.4557 41.5735 12.056 41.2251 8.88494 41.2251C5.71391 41.2251 4.89066 41.3766 4.89066 42.0658C4.89066 42.755 5.53859 42.8611 6.84207 42.9368L13.0622 43.3079C17.3309 43.5579 19.5796 44.5728 19.5796 47.6024C19.5796 50.632 16.7592 51.5484 10.5162 51.5484H10.5238Z" fill="white"/>
<path d="M31.1965 38.1804C38.7125 38.1804 42.3561 40.2405 42.3561 44.853C42.3561 49.4656 38.7125 51.5257 31.1965 51.5257C23.6806 51.5257 20.0369 49.4656 20.0369 44.853C20.0369 40.2405 23.6577 38.1804 31.1965 38.1804ZM31.1965 47.5872C36.2885 47.5872 37.6377 46.8147 37.6377 44.8606C37.6377 42.9065 36.2885 42.134 31.1965 42.134C26.1046 42.134 24.7554 42.9065 24.7554 44.8606C24.7554 46.8147 26.1046 47.5872 31.1965 47.5872Z" fill="white"/>
<path d="M53.8969 38.2258C57.0908 38.2258 60.2618 38.6499 62.5867 39.1953L61.6339 42.9444C59.7892 42.5733 57.167 42.1718 53.1956 42.1718C49.2242 42.1718 47.7987 42.7702 47.7987 44.853C47.7987 46.9359 49.2242 47.5342 53.1956 47.5342C57.167 47.5342 59.7892 47.1404 61.6339 46.7617L62.5867 50.5108C60.2618 51.0561 57.167 51.4802 53.8969 51.4802C46.3047 51.4802 43.0879 49.4428 43.0879 44.853C43.0879 40.2632 46.3123 38.2258 53.8969 38.2258Z" fill="white"/>
<path d="M68.5324 36.9382H63.814V33.0679H68.5324V36.9382ZM63.814 38.5515H68.5324V51.2076H63.814V38.5515Z" fill="white"/>
<path d="M90.2342 39.1423H90.257V51.2H86.1103L85.7596 49.511C83.2594 50.5789 80.3171 51.4424 77.268 51.4424C72.7477 51.4424 69.7292 49.7079 69.7292 44.9893C69.7292 39.8996 73.6472 38.294 79.3718 38.294C83.7701 38.294 87.4366 38.7408 90.257 39.112L90.2342 39.1347V39.1423ZM78.1979 47.5796C80.3704 47.5796 82.8707 47.1101 85.5386 46.3375V42.3915C83.4424 42.1946 80.9955 42.0658 78.8992 42.0658C75.9493 42.0658 74.4552 42.8383 74.4552 44.8227C74.4552 46.8071 75.4767 47.5796 78.1979 47.5796Z" fill="white"/>
<path d="M96.5 51.2076H91.7816V32.5983H96.5V51.2076Z" fill="white"/>
</g>
</svg>
