<svg width="37" height="32" viewBox="0 0 37 32" fill="none" xmlns="http://www.w3.org/2000/svg">
<path d="M33.6364 0H13.4545C11.6045 0 10.0909 1.51579 10.0909 3.36842V6.73684C4.54091 6.73684 0 11.2842 0 16.8421V26.9474H3.36364C3.36364 29.7381 5.62232 32 8.40909 32C11.1959 32 13.4545 29.7381 13.4545 26.9474H20.1818C20.1818 29.7381 22.4405 32 25.2273 32C28.014 32 30.2727 29.7381 30.2727 26.9474H33.6364C35.4864 26.9474 37 25.4316 37 23.5789V3.36842C37 1.51579 35.4864 0 33.6364 0ZM35.3182 23.5789C35.3182 24.5078 34.5639 25.2632 33.6364 25.2632H29.9792C29.2855 23.3019 27.4229 21.8947 25.2273 21.8947C23.0317 21.8947 21.1682 23.3019 20.4753 25.2632H13.4545C13.3503 25.2632 13.2494 25.2505 13.1501 25.232C12.8642 24.4396 12.3874 23.7406 11.7727 23.1882V3.36842C11.7727 2.43958 12.527 1.68421 13.4545 1.68421H33.6364C34.5639 1.68421 35.3182 2.43958 35.3182 3.36842V23.5789ZM28.5909 26.9474C28.5909 28.8051 27.0823 30.3158 25.2273 30.3158C23.3722 30.3158 21.8636 28.8051 21.8636 26.9474C21.8636 25.0897 23.3722 23.5789 25.2273 23.5789C27.0823 23.5789 28.5909 25.0897 28.5909 26.9474ZM11.7727 26.9474C11.7727 28.8051 10.2641 30.3158 8.40909 30.3158C6.55405 30.3158 5.04545 28.8051 5.04545 26.9474C5.04545 25.0897 6.55405 23.5789 8.40909 23.5789C10.2641 23.5789 11.7727 25.0897 11.7727 26.9474ZM10.0909 8.42105V16H1.7247C2.14768 11.7507 5.73836 8.42105 10.0909 8.42105ZM1.68182 25.2632V17.6842H10.0909V22.1886C9.5645 22.0017 8.99941 21.8947 8.40909 21.8947C6.21348 21.8947 4.35002 23.3019 3.65711 25.2632H1.68182Z" fill="#2A1246"/>
<path d="M27.75 7.57895H17.6591V9.26316H27.75V7.57895Z" fill="#2A1246"/>
<path d="M24.3864 14.3158H17.6591V16H24.3864V14.3158Z" fill="#2A1246"/>
</svg>
