<svg width="105" height="37" viewBox="0 0 105 37" fill="none" xmlns="http://www.w3.org/2000/svg">
<g id="Vector">
<path d="M77.0488 13.9109H73.3985V26.2635C73.3985 26.3766 73.3523 26.4839 73.273 26.564C73.1937 26.6442 73.0827 26.6885 72.9703 26.6885H70.1562C70.0423 26.6885 69.9327 26.6442 69.852 26.564C69.7712 26.4839 69.7265 26.3766 69.7265 26.2635V13.9109H66.0546C65.9998 13.9137 65.945 13.9051 65.8917 13.8851C65.8398 13.8651 65.7922 13.8364 65.7533 13.7992C65.7129 13.762 65.6812 13.7162 65.6596 13.6662C65.6365 13.6161 65.625 13.5617 65.625 13.5073V11.3221C65.625 11.2677 65.6365 11.2134 65.6596 11.1633C65.6812 11.1132 65.7129 11.0674 65.7533 11.0302C65.7937 10.993 65.8412 10.9629 65.8917 10.9443C65.9436 10.9257 65.9984 10.9171 66.0546 10.9186H77.0488C77.1627 10.9128 77.2751 10.9529 77.3587 11.0288C77.4438 11.1046 77.4942 11.2105 77.5 11.3221V13.5073C77.4942 13.6204 77.4438 13.7248 77.3587 13.8007C77.2751 13.8765 77.1627 13.9151 77.0488 13.9094" fill="white"/>
<path d="M88.3199 26.4189C87.5664 26.5223 86.3005 26.6885 83.9766 26.6885C81.2024 26.6885 78.75 26.0053 78.75 22.2342V15.3514C78.75 11.5817 81.224 10.918 83.9997 10.918C86.3207 10.918 87.5678 11.0843 88.3199 11.1877C88.6215 11.2296 88.75 11.333 88.75 11.6027V13.5322C88.75 13.6426 88.7038 13.7474 88.6244 13.8243C88.5436 13.9025 88.4339 13.9458 88.3199 13.9458H83.7846C82.7742 13.9458 82.4076 14.277 82.4076 15.3556V17.2405H88.1481C88.2621 17.2405 88.3718 17.2852 88.4527 17.362C88.532 17.4403 88.5782 17.5451 88.5782 17.6555V19.6227C88.5782 19.7331 88.532 19.8379 88.4527 19.9162C88.3718 19.9944 88.2621 20.0377 88.1481 20.0377H82.4076V22.2342C82.4076 23.3114 82.7728 23.644 83.7846 23.644H88.3199C88.4339 23.644 88.5436 23.6887 88.6244 23.7655C88.7053 23.8424 88.75 23.9486 88.75 24.0589V25.9857C88.75 26.2526 88.6215 26.3783 88.3199 26.4189Z" fill="white"/>
<path d="M104.724 26.6842H101.365C101.092 26.6842 100.964 26.5969 100.815 26.3665L97.9039 21.7228L95.2658 26.2635C95.117 26.5182 94.9696 26.6885 94.7385 26.6885H91.6129C91.4017 26.6885 91.2968 26.5612 91.2968 26.4123C91.301 26.3608 91.3152 26.3093 91.3393 26.2635L95.9151 18.5989L91.2925 11.3206C91.2684 11.282 91.2542 11.2376 91.25 11.1932C91.2571 11.116 91.2939 11.043 91.3521 10.9929C91.4116 10.9414 91.4881 10.9142 91.5661 10.9185H94.9667C95.1992 10.9185 95.3679 11.1317 95.4926 11.322L98.1959 15.608L100.811 11.322C100.916 11.1303 101.107 10.9185 101.339 10.9185H104.464C104.542 10.9156 104.619 10.9414 104.678 10.9929C104.738 11.0444 104.775 11.116 104.782 11.1932C104.777 11.239 104.763 11.282 104.739 11.3206L100.138 18.6432L104.936 26.2621C104.974 26.3279 104.996 26.4009 105 26.4753C105 26.5984 104.895 26.6828 104.725 26.6828" fill="white"/>
<path d="M60.3431 10.9209C60.2662 10.9209 60.1907 10.9478 60.1312 10.9946C60.0717 11.0429 60.0311 11.1096 60.0151 11.1833L56.8753 22.4849C56.8318 22.7175 56.7679 22.8012 56.5719 22.8012C56.376 22.8012 56.3136 22.7133 56.2686 22.4849L53.1259 11.1805C53.1099 11.1067 53.0707 11.04 53.0112 10.9932C52.9517 10.945 52.8762 10.9195 52.7993 10.9195H49.7089C49.6581 10.9195 49.6087 10.9308 49.5637 10.9521C49.5187 10.9734 49.4781 11.0046 49.4476 11.0429C49.4171 11.0812 49.3953 11.1266 49.3837 11.1734C49.3721 11.2216 49.3721 11.2699 49.3837 11.3181C49.3837 11.3181 53.2188 24.2795 53.2609 24.4072C53.7733 25.9508 55.0158 26.6885 56.5966 26.6885C58.1774 26.6885 59.4156 25.9153 59.9294 24.4101C59.9904 24.2356 63.7413 11.3167 63.7413 11.3167C63.7529 11.2685 63.7529 11.2202 63.7413 11.172C63.7297 11.1237 63.7079 11.0798 63.6774 11.0415C63.6455 11.0032 63.6063 10.9719 63.5613 10.9507C63.5148 10.9294 63.4655 10.918 63.4161 10.918L60.3431 10.9209Z" fill="white"/>
<path d="M41.0532 0.00140346H7.91735C5.34729 0.00140346 3.70217 2.66516 4.90487 4.87981L8.21946 11.0003H2.21025C1.82939 11.0003 1.45569 11.0971 1.12495 11.2796C0.792776 11.462 0.516441 11.7245 0.320286 12.0431C0.121268 12.3602 0.012452 12.7223 0.000997706 13.0928C-0.0104566 13.4633 0.0768825 13.8311 0.254424 14.1595L10.9155 33.8387C11.1031 34.184 11.3837 34.4745 11.7288 34.6766C12.0724 34.8787 12.4661 34.9853 12.8685 34.9853C13.2708 34.9853 13.6645 34.8787 14.0082 34.6766C14.3518 34.4745 14.6339 34.184 14.8214 33.8387L17.7165 28.5224L21.349 35.2281C22.6275 37.5873 26.091 37.5916 27.3739 35.2352L43.9827 4.75491C45.1567 2.5992 43.5546 0 41.0518 0M26.1669 13.0227L19.0051 26.1688C18.8806 26.399 18.693 26.5913 18.4639 26.726C18.2348 26.8607 17.9728 26.9309 17.7065 26.9309C17.4402 26.9309 17.1767 26.8593 16.9491 26.726C16.72 26.5913 16.5324 26.3976 16.4079 26.1688L9.31478 13.0788C9.19594 12.8599 9.13724 12.6157 9.1444 12.3687C9.15012 12.1216 9.22314 11.8802 9.35344 11.6697C9.48373 11.4578 9.66843 11.2824 9.88892 11.1603C10.1094 11.0382 10.3571 10.9736 10.6105 10.9736H24.9041C25.1504 10.9736 25.3938 11.0354 25.6085 11.1547C25.8233 11.2726 26.0037 11.4438 26.1311 11.6501C26.2586 11.8564 26.3287 12.0908 26.3344 12.3322C26.3402 12.5736 26.2829 12.8107 26.1669 13.0241" fill="white"/>
</g>
</svg>
