<svg width="32" height="32" viewBox="0 0 32 32" fill="none" xmlns="http://www.w3.org/2000/svg">
<path d="M28.8 8H22.4V0L0 8V28.8C0 30.56 1.44 32 3.2 32H28.8C30.56 32 32 30.56 32 28.8V11.2C32 9.44 30.56 8 28.8 8ZM30.4 28.8C30.4 29.6824 29.6824 30.4 28.8 30.4H3.2C2.3176 30.4 1.6 29.6824 1.6 28.8V11.2C1.6 10.3176 2.3176 9.6 3.2 9.6H28.8C29.6824 9.6 30.4 10.3176 30.4 11.2V28.8ZM20.8 8H4.7568L20.8 2.2704V8Z" fill="#2A1246"/>
<path d="M24 21.6C24.8837 21.6 25.6 20.8837 25.6 20C25.6 19.1163 24.8837 18.4 24 18.4C23.1163 18.4 22.4 19.1163 22.4 20C22.4 20.8837 23.1163 21.6 24 21.6Z" fill="#2A1246"/>
</svg>
