<svg width="200" height="45" viewBox="0 0 200 45" fill="none" xmlns="http://www.w3.org/2000/svg">
<g id="Vector">
<path d="M15.4964 45C13.1138 45 10.7313 44.6313 8.34871 43.8926V32.5524C10.517 33.2533 12.118 33.6031 13.1528 33.6031C14.1876 33.6031 15.09 33.4609 15.9794 33.1778C16.8675 32.8946 17.605 32.5675 18.1906 32.1988C18.7762 31.8301 19.5474 31.4425 20.5043 31.0348C21.4612 30.6283 22.4675 30.3389 23.5218 30.169C24.284 30.018 25.2604 29.9425 26.451 29.9425V28.961H9.4913L0 0.682028H14.8225L17.7063 12.3784C19.093 17.2999 19.7863 21.5015 19.7863 24.9834H21.1366C21.1366 21.3492 21.8105 17.1476 23.1583 12.3784L26.1004 0.682028H40.923L31.1382 31.5708C30.5721 33.3313 29.9411 34.9118 29.249 36.3123C28.5557 37.7129 27.8727 38.8768 27.1989 39.8043C26.525 40.7317 25.7628 41.5307 24.9137 42.2027C24.0645 42.8746 23.2829 43.3855 22.5701 43.7354C21.8573 44.0852 21.0471 44.3595 20.1382 44.5583C19.2306 44.7571 18.449 44.8805 17.7946 44.927C17.1402 44.9736 16.3741 44.9975 15.4951 44.9975L15.4964 45Z" fill="#FE7E00"/>
<path d="M49.0964 36.2834C47.5149 36.2834 46.0451 36.0934 44.687 35.7159C43.3289 35.3371 42.1045 34.7696 41.0112 34.0121C39.9167 33.2558 39.0585 32.229 38.4339 30.9316C37.8081 29.6355 37.4965 28.1355 37.4965 26.4317C37.4965 24.7279 37.8432 23.2053 38.5365 21.8614C39.2298 20.5175 40.1335 19.4302 41.2463 18.5972C42.359 17.7642 43.6924 17.0733 45.2453 16.5247C46.7982 15.9761 48.3654 15.5923 49.9468 15.3746C51.5283 15.1569 53.198 15.0487 54.9561 15.0487C57.1036 15.0487 59.1642 15.2009 61.1377 15.5029C60.2587 13.8004 57.2594 12.4363 53.99 12.4363C51.8814 12.4363 49.7183 12.8012 47.5019 13.5298C45.2856 14.2584 43.3756 15.1909 41.7747 16.3259H40.984V3.12449C42.9173 2.23484 45.1882 1.49241 47.7941 0.895948C50.4013 0.299488 53.0916 0.00125835 55.8649 0.00125835C61.7428 0.00125835 66.4002 1.52009 69.8383 4.55776C73.2752 7.59543 74.9943 11.67 74.9943 16.7802V35.5749H61.3727L63.9838 20.2721H62.4569C62.2816 25.6478 61.0313 29.6594 58.7071 32.3095C56.383 34.9596 53.1798 36.2846 49.099 36.2846L49.0964 36.2834ZM54.0472 26.5739C55.765 26.5739 57.1568 25.9737 58.2215 24.7707C59.2862 23.569 59.8965 22.0501 60.0523 20.2142H57.4165C54.9755 20.2142 53.2279 20.5829 52.1723 21.3216C51.118 22.0602 50.5908 22.9499 50.5908 23.9905C50.5908 24.8236 50.9232 25.4628 51.5867 25.907C52.2502 26.3525 53.0708 26.5739 54.0472 26.5739Z" fill="#FE7E00"/>
<path d="M91.4255 35.5737H77.3937V0.682028H90.4283L88.4937 20.5263H89.9323C90.7529 12.9371 92.1344 7.61808 94.0768 4.57034C96.0192 1.52387 99.0809 0 103.26 0C106.835 0 109.577 1.23948 111.492 3.71844C113.406 6.19865 114.363 10.1914 114.363 15.6992V35.5724H100.301V23.194C100.301 22.2854 100.291 21.533 100.271 20.9365C100.252 20.34 100.203 19.6593 100.125 18.8917C100.047 18.1253 99.9248 17.5012 99.7586 17.018C99.5924 16.5348 99.373 16.0667 99.099 15.6124C98.8251 15.1581 98.4641 14.8222 98.0149 14.6045C97.5656 14.3868 97.0489 14.2773 96.462 14.2773C95.7193 14.2773 95.0701 14.4195 94.5144 14.7026C93.9574 14.9857 93.4939 15.4362 93.1225 16.0516C92.7512 16.6669 92.4538 17.3439 92.2292 18.0813C92.0046 18.8199 91.8332 19.77 91.7163 20.934C91.5995 22.098 91.5203 23.2292 91.4813 24.3265C91.4424 25.4238 91.4229 26.7677 91.4229 28.3583V35.5686L91.4255 35.5737Z" fill="#FE7E00"/>
<path d="M130.767 35.5737H116.735V0.682028H130.424L127.834 20.5263H129.273C130.093 12.9371 131.475 7.61808 133.417 4.57034C135.361 1.52387 138.421 0 142.601 0C146.175 0 148.919 1.23948 150.832 3.71844C152.746 6.19865 153.703 10.1914 153.703 15.6992V35.5724H139.642V23.194C139.642 22.2854 139.631 21.533 139.612 20.9365C139.592 20.34 139.543 19.6593 139.465 18.8917C139.387 18.1253 139.265 17.5012 139.099 17.018C138.933 16.5348 138.713 16.0667 138.439 15.6124C138.165 15.1581 137.804 14.8222 137.355 14.6045C136.906 14.3868 136.388 14.2773 135.802 14.2773C135.06 14.2773 134.41 14.4195 133.855 14.7026C133.298 14.9857 132.834 15.4362 132.463 16.0516C132.091 16.6669 131.794 17.3439 131.569 18.0813C131.345 18.8199 131.173 19.77 131.057 20.934C130.94 22.098 130.861 23.2292 130.823 24.3265C130.784 25.4238 130.764 26.7677 130.764 28.3583V35.5686L130.767 35.5737Z" fill="#FE7E00"/>
<path d="M175.441 36.2834C172.434 36.2834 169.671 35.8102 167.151 34.864C164.632 33.9177 162.522 32.6253 160.824 30.9882C159.124 29.3511 157.806 27.4346 156.869 25.2388C155.931 23.043 155.463 20.6961 155.463 18.1983C155.463 16.2114 155.76 14.305 156.356 12.4778C156.952 10.652 157.826 8.98087 158.977 7.46707C160.129 5.95327 161.507 4.63829 163.108 3.52087C164.708 2.40471 166.564 1.53897 168.674 0.922374C170.784 0.307038 173.039 0 175.441 0C178.39 0 181.119 0.48195 183.629 1.44837C186.137 2.41352 188.243 3.71466 189.942 5.35178C191.641 6.9889 192.968 8.91921 193.925 11.144C194.882 13.3688 195.361 15.7194 195.361 18.1983C195.361 20.6773 194.896 23.0442 193.969 25.2388C193.041 27.4346 191.737 29.3511 190.058 30.9882C188.378 32.6253 186.28 33.9177 183.76 34.864C181.241 35.8102 178.468 36.2834 175.441 36.2834ZM170.168 22.1445C171.516 23.0342 173.273 23.4784 175.441 23.4784C177.609 23.4784 179.382 23.0342 180.758 22.1445C182.136 21.2549 182.824 19.9399 182.824 18.1983C182.824 16.4568 182.136 15.1367 180.758 14.2383C179.382 13.3398 177.609 12.8893 175.441 12.8893C173.273 12.8893 171.564 13.3386 170.198 14.2383C168.831 15.138 168.148 16.458 168.148 18.1983C168.148 19.9386 168.821 21.2549 170.168 22.1445Z" fill="#FE7E00"/>
<path d="M193.421 42.1838C192.615 42.0114 191.9 41.7258 191.278 41.3256C190.656 40.9255 190.166 40.4573 189.808 39.9213C189.449 39.384 189.211 38.7913 189.09 38.142C188.969 37.4927 188.985 36.8308 189.138 36.1588C189.29 35.4919 189.561 34.8866 189.953 34.343C190.345 33.8007 190.821 33.3577 191.381 33.0142C191.941 32.6706 192.59 32.4429 193.329 32.3284C194.068 32.2139 194.838 32.2428 195.64 32.4139C196.432 32.5826 197.137 32.8695 197.754 33.2721C198.371 33.6761 198.856 34.1467 199.212 34.6853C199.568 35.2239 199.804 35.819 199.922 36.4696C200.041 37.1214 200.024 37.7808 199.873 38.4478C199.72 39.1235 199.45 39.7325 199.067 40.2724C198.682 40.8122 198.216 41.2539 197.668 41.5974C197.12 41.9409 196.478 42.1674 195.743 42.2782C195.008 42.3889 194.234 42.3575 193.424 42.1838H193.421ZM193.642 41.084C195.06 41.386 196.244 41.2765 197.194 40.7543C198.144 40.2308 198.749 39.4016 199.007 38.264C199.267 37.1214 199.077 36.1211 198.442 35.2603C197.806 34.3996 196.779 33.817 195.361 33.515C193.947 33.213 192.766 33.3237 191.815 33.846C190.865 34.3694 190.261 35.2012 190.001 36.3425C189.742 37.4851 189.929 38.4842 190.56 39.3424C191.192 40.2006 192.219 40.7807 193.642 41.084ZM193.468 39.8445L191.327 39.3877L192.544 34.0309L195.426 34.6463C195.684 34.7016 195.926 34.7645 196.153 34.8363C196.379 34.908 196.61 35.0024 196.844 35.1219C197.078 35.2402 197.272 35.3723 197.428 35.5158C197.583 35.6592 197.698 35.8342 197.772 36.0418C197.846 36.2481 197.857 36.4709 197.802 36.7075C197.745 36.9579 197.641 37.163 197.488 37.3215C197.335 37.4801 197.148 37.5883 196.926 37.6474C196.704 37.7066 196.473 37.7355 196.232 37.7343C195.993 37.7343 195.734 37.7066 195.456 37.6512L195.447 37.6915C195.9 37.811 196.234 37.9494 196.447 38.108C196.659 38.2665 196.783 38.5031 196.817 38.819C196.823 38.8706 196.835 38.9914 196.852 39.1826C196.869 39.3726 196.883 39.5375 196.896 39.6784C196.909 39.8194 196.932 39.9729 196.966 40.139C197 40.3051 197.04 40.4297 197.088 40.514L197.066 40.6121L194.837 40.1365C194.811 40.0207 194.787 39.8848 194.768 39.7313C194.748 39.5778 194.735 39.4456 194.729 39.3362C194.722 39.2267 194.716 39.0958 194.711 38.9448C194.704 38.7938 194.7 38.6994 194.7 38.6629C194.679 38.3358 194.625 38.1118 194.535 37.9885C194.447 37.8664 194.289 37.7758 194.059 37.7166L193.957 37.6953L193.469 39.8433L193.468 39.8445ZM194.379 35.8329L194.173 36.7414L194.799 36.8748C195.012 36.9201 195.19 36.9189 195.335 36.8685C195.479 36.8182 195.569 36.7163 195.604 36.5627C195.671 36.2645 195.473 36.0644 195.005 35.965L194.379 35.8329Z" fill="#FE7E00"/>
</g>
</svg>
