<svg width="33" height="22" viewBox="0 0 33 22" fill="none" xmlns="http://www.w3.org/2000/svg">
<path id="Vector" d="M32.3089 3.4518C32.1221 2.78566 31.7582 2.18256 31.2558 1.70663C30.7393 1.21607 30.1062 0.865156 29.4163 0.687017C26.8344 0.00681409 16.4903 0.00681424 16.4903 0.00681424C12.178 -0.0422254 7.86669 0.173463 3.58081 0.652663C2.89091 0.843963 2.25901 1.20272 1.7413 1.69702C1.23262 2.18621 0.864171 2.78946 0.671697 3.45043C0.209337 5.94003 -0.0153088 8.46791 0.000787478 11C-0.0157103 13.5298 0.208385 16.0569 0.671697 18.5496C0.860047 19.2078 1.22712 19.8083 1.73718 20.2934C2.24724 20.7784 2.8824 21.1288 3.58081 21.3143C6.19708 21.9932 16.4903 21.9932 16.4903 21.9932C20.8081 22.0423 25.1249 21.8266 29.4163 21.3473C30.1062 21.1692 30.7393 20.8183 31.2558 20.3277C31.758 19.8519 32.1215 19.2487 32.3076 18.5825C32.782 16.0939 33.0127 13.565 32.9963 11.0316C33.032 8.48751 32.8016 5.94665 32.3089 3.45043V3.4518ZM13.2018 15.7051V6.29629L21.8081 11.0014L13.2018 15.7051Z" fill="white"/>
</svg>
